# This file uses centimeters as units for non-parametric coordinates.

mtllib Building2.mtl
g default
v -5.594439 1.734103 1.140273
v -4.594439 1.734103 1.140273
v -5.594439 2.057314 1.140273
v -4.594439 2.057314 1.140273
v -5.594439 2.057314 -1.140275
v -4.594439 2.057314 -1.140275
v -5.594439 1.734103 -1.140275
v -4.594439 1.734103 -1.140275
v -2.886536 15.117825 3.604327
v -1.886536 15.117825 3.604327
v -2.886536 16.117821 3.604327
v -1.886536 16.117817 3.604327
v -2.886536 16.117817 2.604327
v -1.886536 16.117813 2.604327
v -2.886536 15.117821 2.604327
v -1.886536 15.117813 2.604327
v -1.886536 15.328861 2.815371
v -1.886536 15.328869 3.393279
v -1.886536 15.906773 2.815371
v -1.886536 15.906776 3.393279
v 2.000000 15.328850 2.815371
v 2.000000 15.328869 3.393279
v 2.000000 15.906773 2.815371
v 2.000000 15.906773 3.393279
v 2.711047 14.604473 2.815371
v 2.711047 14.604473 3.393279
v 3.288953 14.604458 2.815371
v 3.288953 14.604485 3.393279
v -4.838898 15.604469 4.838897
v 4.838898 15.604469 4.838897
v -4.838898 15.604469 -4.838899
v 4.838898 15.604469 -4.838899
v -5.000000 15.156170 4.999999
v 5.000000 15.156170 4.999999
v 5.000000 15.156178 -5.000001
v -5.000000 15.156178 -5.000001
v -5.100885 15.156170 5.100884
v 5.100885 15.156170 5.100884
v 5.100885 15.604469 5.100884
v -5.100885 15.604469 5.100884
v -5.100885 15.604469 -5.100888
v 5.100885 15.604469 -5.100888
v 5.100885 15.156178 -5.100888
v -5.100885 15.156178 -5.100888
v -4.838898 15.205013 4.838897
v 4.838898 15.205013 4.838897
v 4.838898 15.205013 -4.838899
v -4.838898 15.205013 -4.838899
v 2.063880 15.205032 1.196700
v 3.516909 15.205040 1.196700
v 3.516909 15.205040 -1.196702
v 2.063880 15.205032 -1.196702
v 2.063880 16.561302 1.196700
v 3.516909 16.561302 1.196700
v 3.516909 16.561302 -1.196702
v 2.063880 16.561302 -1.196702
v 2.006342 16.561302 1.254237
v 3.574447 16.561291 1.254237
v 3.574447 16.725327 1.254237
v 2.006342 16.725319 1.254237
v 3.574447 16.561291 -1.254239
v 3.574447 16.725327 -1.254239
v 2.006342 16.561302 -1.254239
v 2.006342 16.725319 -1.254239
v -5.000000 0.342392 4.999999
v -5.000000 0.342400 -5.000001
v 5.000000 0.342400 -5.000001
v 5.000000 0.342392 4.999999
v -5.000000 -0.234764 4.999999
v -5.000000 -0.234756 -5.000001
v 5.000000 -0.234756 -5.000001
v 5.000000 -0.234764 4.999999
v -5.069164 -0.234764 5.069163
v -5.069164 -0.234756 -5.069165
v -5.069164 0.342392 5.069163
v -5.069164 0.342400 -5.069165
v 5.069164 0.342400 -5.069165
v 5.069164 -0.234756 -5.069165
v 5.069164 -0.234764 5.069163
v 5.069164 0.342392 5.069163
vt 0.375000 0.000000
vt 0.625000 0.000000
vt 0.375000 0.250000
vt 0.625000 0.250000
vt 0.375000 0.500000
vt 0.625000 0.500000
vt 0.375000 0.750000
vt 0.625000 0.750000
vt 0.375000 1.000000
vt 0.625000 1.000000
vt 0.875000 0.000000
vt 0.875000 0.250000
vt 0.125000 0.000000
vt 0.125000 0.250000
vt 0.375000 0.000000
vt 0.625000 0.000000
vt 0.625000 0.250000
vt 0.375000 0.250000
vt 0.625000 0.500000
vt 0.375000 0.500000
vt 0.625000 0.750000
vt 0.375000 0.750000
vt 0.125000 0.000000
vt 0.125000 0.250000
vt 0.875000 0.000000
vt 0.875000 0.000000
vt 0.625000 0.000000
vt 0.875000 0.250000
vt 0.875000 0.250000
vt 0.625000 0.250000
vt 0.875000 0.000000
vt 0.625000 0.000000
vt 0.875000 0.250000
vt 0.625000 0.250000
vt 0.875000 0.000000
vt 0.625000 0.000000
vt 0.875000 0.250000
vt 0.625000 0.250000
vt 0.375000 0.244460
vt 0.625000 0.244460
vt 0.625000 0.250000
vt 0.375000 0.250000
vt 0.375000 0.500000
vt 0.625000 0.500000
vt 0.625000 0.505540
vt 0.375000 0.505540
vt 0.875000 0.244460
vt 0.875000 0.250000
vt 0.125000 0.244460
vt 0.125000 0.250000
vt 0.375000 0.244460
vt 0.625000 0.244460
vt 0.625000 0.250000
vt 0.375000 0.250000
vt 0.375000 0.500000
vt 0.625000 0.500000
vt 0.625000 0.505540
vt 0.375000 0.505540
vt 0.875000 0.244460
vt 0.875000 0.250000
vt 0.125000 0.244460
vt 0.125000 0.250000
vt 0.625000 0.250000
vt 0.375000 0.250000
vt 0.625000 0.500000
vt 0.375000 0.500000
vt 0.625000 0.250000
vt 0.375000 0.250000
vt 0.625000 0.500000
vt 0.375000 0.500000
vt 0.625000 0.250000
vt 0.375000 0.250000
vt 0.625000 0.500000
vt 0.375000 0.500000
vt 0.375000 0.250000
vt 0.625000 0.250000
vt 0.625000 0.250000
vt 0.375000 0.250000
vt 0.625000 0.500000
vt 0.625000 0.500000
vt 0.375000 0.500000
vt 0.375000 0.500000
vt 0.125000 0.230080
vt 0.375000 0.230080
vt 0.625000 0.519920
vt 0.375000 0.519920
vt 0.625000 0.230080
vt 0.875000 0.230080
vt 0.125000 0.215700
vt 0.375000 0.215700
vt 0.375000 0.230080
vt 0.125000 0.230080
vt 0.375000 0.519920
vt 0.625000 0.519920
vt 0.625000 0.534300
vt 0.375000 0.534300
vt 0.625000 0.215700
vt 0.875000 0.215700
vt 0.875000 0.230080
vt 0.625000 0.230080
vt 0.125000 0.215700
vt 0.375000 0.215700
vt 0.625000 0.534300
vt 0.375000 0.534300
vt 0.625000 0.215700
vt 0.875000 0.215700
vn 0.000000 0.000000 1.000000
vn 0.000000 0.000000 1.000000
vn 0.000000 0.000000 1.000000
vn 0.000000 0.000000 1.000000
vn 0.000000 1.000000 0.000000
vn 0.000000 1.000000 0.000000
vn 0.000000 1.000000 0.000000
vn 0.000000 1.000000 0.000000
vn 0.000000 0.000000 -1.000000
vn 0.000000 0.000000 -1.000000
vn 0.000000 0.000000 -1.000000
vn 0.000000 0.000000 -1.000000
vn 0.000000 -1.000000 0.000000
vn 0.000000 -1.000000 0.000000
vn 0.000000 -1.000000 0.000000
vn 0.000000 -1.000000 0.000000
vn 1.000000 0.000000 0.000000
vn 1.000000 0.000000 0.000000
vn 1.000000 0.000000 0.000000
vn 1.000000 0.000000 0.000000
vn -1.000000 0.000000 0.000000
vn -1.000000 0.000000 0.000000
vn -1.000000 0.000000 0.000000
vn -1.000000 0.000000 0.000000
vn 0.000000 0.000000 1.000000
vn 0.000000 0.000000 1.000000
vn 0.000000 0.000000 1.000000
vn 0.000000 0.000000 1.000000
vn 0.000004 1.000000 -0.000004
vn 0.000004 1.000000 -0.000004
vn 0.000004 1.000000 -0.000004
vn 0.000004 1.000000 -0.000004
vn 0.000000 0.000000 -1.000000
vn 0.000000 0.000000 -1.000000
vn 0.000000 0.000000 -1.000000
vn 0.000000 0.000000 -1.000000
vn -1.000000 0.000000 0.000000
vn -1.000000 0.000000 0.000000
vn -1.000000 0.000000 0.000000
vn -1.000000 0.000000 0.000000
vn 1.000000 -0.000000 0.000000
vn 1.000000 -0.000000 0.000000
vn 1.000000 -0.000000 0.000000
vn 1.000000 -0.000000 0.000000
vn 1.000000 -0.000000 0.000000
vn 1.000000 -0.000000 0.000000
vn 1.000000 -0.000000 0.000000
vn 1.000000 -0.000000 0.000000
vn -0.000001 -1.000000 0.000022
vn -0.000001 -1.000000 0.000022
vn -0.155641 -0.987814 0.000021
vn -0.155637 -0.987814 0.000021
vn -0.000000 0.000000 -1.000000
vn -0.000000 0.000000 -1.000000
vn -0.000000 0.000000 -1.000000
vn -0.000001 0.000000 -1.000000
vn 0.000000 1.000000 -0.000003
vn 0.000000 1.000000 -0.000003
vn 0.244023 0.969769 -0.000008
vn 0.244023 0.969769 -0.000008
vn -0.000000 0.000000 1.000000
vn -0.000000 0.000000 1.000000
vn -0.000002 0.000000 1.000000
vn -0.000001 0.000000 1.000000
vn -0.713645 -0.700507 0.000011
vn -0.713645 -0.700507 0.000011
vn -0.000003 0.000000 -1.000000
vn -0.000003 0.000000 -1.000000
vn 0.710741 0.703453 -0.000016
vn 0.710741 0.703453 -0.000016
vn -0.000007 0.000000 1.000000
vn -0.000007 0.000000 1.000000
vn 0.000000 0.000000 1.000000
vn 0.000000 0.000000 1.000000
vn 0.000000 0.000000 1.000000
vn 0.000000 0.000000 1.000000
vn 0.000000 0.000000 -1.000000
vn 0.000000 0.000000 -1.000000
vn 0.000000 0.000000 -1.000000
vn 0.000000 0.000000 -1.000000
vn 1.000000 0.000000 0.000000
vn 1.000000 0.000000 0.000000
vn 1.000000 0.000000 0.000000
vn 1.000000 0.000000 0.000000
vn -1.000000 0.000000 0.000000
vn -1.000000 0.000000 0.000000
vn -1.000000 0.000000 0.000000
vn -1.000000 0.000000 0.000000
vn 0.000000 -1.000000 -0.000007
vn 0.000000 -1.000000 -0.000007
vn 0.000000 -1.000000 -0.000007
vn 0.000000 -1.000000 -0.000007
vn 0.000000 1.000000 -0.000002
vn 0.000000 1.000000 -0.000002
vn 0.000000 1.000000 -0.000002
vn 0.000000 1.000000 -0.000002
vn 0.000000 1.000000 0.000002
vn 0.000000 1.000000 0.000002
vn 0.000000 1.000000 0.000002
vn 0.000000 1.000000 0.000002
vn 0.000000 -1.000000 -0.000001
vn 0.000000 -1.000000 -0.000001
vn 0.000000 -1.000000 -0.000001
vn 0.000000 -1.000000 -0.000001
vn 0.000000 0.000000 -1.000000
vn 0.000000 0.000000 -1.000000
vn 0.000000 0.000000 -1.000000
vn 0.000000 0.000000 -1.000000
vn -1.000000 0.000000 0.000000
vn -1.000000 0.000000 0.000000
vn -1.000000 0.000000 0.000000
vn -1.000000 0.000000 0.000000
vn 0.000000 0.000000 1.000000
vn 0.000000 0.000000 1.000000
vn 0.000000 0.000000 1.000000
vn 0.000000 0.000000 1.000000
vn 1.000000 0.000000 0.000000
vn 1.000000 0.000000 0.000000
vn 1.000000 0.000000 0.000000
vn 1.000000 0.000000 0.000000
vn -0.000002 1.000000 0.000001
vn 0.000001 1.000000 0.000005
vn 0.000007 1.000000 0.000004
vn -0.000002 1.000000 0.000002
vn 0.000001 1.000000 -0.000005
vn 0.000007 1.000000 -0.000004
vn -0.000002 1.000000 -0.000001
vn -0.000002 1.000000 -0.000002
vn 0.000000 0.000000 1.000000
vn 0.000000 0.000000 1.000000
vn 0.000000 0.000000 1.000000
vn 0.000000 0.000000 1.000000
vn 1.000000 0.000000 0.000000
vn 1.000000 0.000000 0.000000
vn 1.000000 0.000000 0.000000
vn 1.000000 0.000000 0.000000
vn 0.000000 0.000000 -1.000000
vn 0.000000 0.000000 -1.000000
vn 0.000000 0.000000 -1.000000
vn 0.000000 0.000000 -1.000000
vn -1.000000 0.000000 0.000000
vn -1.000000 0.000000 0.000000
vn -1.000000 0.000000 0.000000
vn -1.000000 0.000000 0.000000
vn 0.000000 0.000000 1.000000
vn 0.000000 0.000000 1.000000
vn 0.000000 0.000000 1.000000
vn 0.000000 0.000000 1.000000
vn 1.000000 0.000000 0.000000
vn 1.000000 0.000000 0.000000
vn 1.000000 0.000000 0.000000
vn 1.000000 0.000000 0.000000
vn 0.000002 0.000000 -1.000000
vn 0.000002 0.000000 -1.000000
vn 0.000002 0.000000 -1.000000
vn 0.000002 0.000000 -1.000000
vn -1.000000 0.000000 0.000000
vn -1.000000 0.000000 0.000000
vn -1.000000 0.000000 0.000000
vn -1.000000 0.000000 0.000000
vn -0.000001 -1.000000 -0.000029
vn -0.000125 -1.000000 -0.000029
vn -0.000125 -1.000000 -0.000029
vn -0.000001 -1.000000 -0.000029
vn -0.000125 -1.000000 0.000027
vn -0.000125 -1.000000 0.000027
vn -0.000005 1.000000 0.000000
vn -0.000005 1.000000 0.000000
vn -0.000005 1.000000 0.000000
vn -0.000005 1.000000 0.000000
vn -0.000001 -1.000000 0.000027
vn -0.000001 -1.000000 0.000027
vn -1.000000 0.000000 0.000000
vn -1.000000 0.000000 0.000000
vn -1.000000 0.000000 0.000000
vn -1.000000 0.000000 0.000000
vn 0.000000 0.000000 -1.000000
vn 0.000000 0.000000 -1.000000
vn 0.000000 0.000000 -1.000000
vn 0.000000 0.000000 -1.000000
vn 1.000000 0.000000 0.000000
vn 1.000000 0.000000 0.000000
vn 1.000000 0.000000 0.000000
vn 1.000000 0.000000 0.000000
vn 0.000000 0.000000 1.000000
vn 0.000000 0.000000 1.000000
vn 0.000000 0.000000 1.000000
vn 0.000000 0.000000 1.000000
vn -1.000000 0.000000 0.000000
vn -1.000000 0.000000 0.000000
vn -1.000000 0.000000 0.000000
vn -1.000000 0.000000 0.000000
vn 0.000000 0.000000 -1.000000
vn 0.000000 0.000000 -1.000000
vn 0.000000 0.000000 -1.000000
vn 0.000000 0.000000 -1.000000
vn 1.000000 0.000000 0.000000
vn 1.000000 0.000000 0.000000
vn 1.000000 0.000000 0.000000
vn 1.000000 0.000000 0.000000
vn 0.000000 0.000000 1.000000
vn 0.000000 0.000000 1.000000
vn 0.000000 0.000000 1.000000
vn 0.000000 0.000000 1.000000
vn 0.000000 -1.000000 -0.000000
vn 0.000000 -1.000000 -0.000000
vn 0.000000 -1.000000 -0.000000
vn 0.000000 -1.000000 -0.000000
vn 0.000000 1.000000 0.000000
vn 0.000000 1.000000 0.000000
vn 0.000000 1.000000 0.000000
vn 0.000000 1.000000 0.000000
vn 0.000000 1.000000 0.000000
vn 0.000000 1.000000 0.000000
vn 0.000000 -1.000000 -0.000000
vn 0.000000 -1.000000 -0.000000
vn 0.000000 -1.000000 -0.000000
vn 0.000000 -1.000000 -0.000000
vn 0.000000 1.000000 0.000000
vn 0.000000 1.000000 0.000000
g Building2 PROPS
usemtl lambert3SG
f 1/1/1 2/2/2 4/4/3 3/3/4
f 3/3/5 4/4/6 6/6/7 5/5/8
f 5/5/9 6/6/10 8/8/11 7/7/12
f 7/7/13 8/8/14 2/10/15 1/9/16
f 2/2/17 8/11/18 6/12/19 4/4/20
f 7/13/21 1/1/22 3/3/23 5/14/24
f 9/15/25 10/16/26 12/17/27 11/18/28
f 11/18/29 12/17/30 14/19/31 13/20/32
f 13/20/33 14/19/34 16/21/35 15/22/36
f 15/23/37 9/15/38 11/18/39 13/24/40
f 10/16/41 16/25/42 17/26/43 18/27/44
f 16/25/42 14/28/45 19/29/46 17/26/43
f 14/28/45 12/17/47 20/30/48 19/29/46
f 12/17/47 10/16/41 18/27/44 20/30/48
f 18/27/49 17/26/50 21/31/51 22/32/52
f 17/26/53 19/29/54 23/33/55 21/31/56
f 19/29/57 20/30/58 24/34/59 23/33/60
f 20/30/61 18/27/62 22/32/63 24/34/64
f 22/32/52 21/31/51 25/35/65 26/36/66
f 21/31/56 23/33/55 27/37/67 25/35/68
f 23/33/60 24/34/59 28/38/69 27/37/70
f 24/34/64 22/32/63 26/36/71 28/38/72
f 37/39/73 38/40/74 39/41/75 40/42/76
f 41/43/77 42/44/78 43/45/79 44/46/80
f 38/40/81 43/47/82 42/48/83 39/41/84
f 44/49/85 37/39/86 40/42/87 41/50/88
f 33/51/89 34/52/90 38/40/91 37/39/92
f 30/53/93 29/54/94 40/42/95 39/41/96
f 31/55/97 32/56/98 42/44/99 41/43/100
f 35/57/101 36/58/102 44/46/103 43/45/104
f 34/52/90 35/59/101 43/47/104 38/40/91
f 32/60/98 30/53/93 39/41/96 42/48/99
f 36/61/102 33/51/89 37/39/92 44/49/103
f 29/54/94 31/62/97 41/50/100 40/42/95
f 29/54/105 30/53/106 46/63/107 45/64/108
f 30/53/109 32/56/110 47/65/111 46/63/112
f 32/56/113 31/55/114 48/66/115 47/65/116
f 31/55/117 29/54/118 45/64/119 48/66/120
f 45/64/121 46/63/122 50/67/123 49/68/124
f 46/63/122 47/65/125 51/69/126 50/67/123
f 47/65/125 48/66/127 52/70/128 51/69/126
f 48/66/127 45/64/121 49/68/124 52/70/128
f 49/68/129 50/67/130 54/71/131 53/72/132
f 50/67/133 51/69/134 55/73/135 54/71/136
f 51/69/137 52/70/138 56/74/139 55/73/140
f 52/70/141 49/68/142 53/72/143 56/74/144
f 57/75/145 58/76/146 59/77/147 60/78/148
f 58/76/149 61/79/150 62/80/151 59/77/152
f 61/79/153 63/81/154 64/82/155 62/80/156
f 63/81/157 57/75/158 60/78/159 64/82/160
f 53/72/161 54/71/162 58/76/163 57/75/164
f 54/71/162 55/73/165 61/79/166 58/76/163
f 60/78/167 59/77/168 62/80/169 64/82/170
f 55/73/165 56/74/171 63/81/172 61/79/166
f 56/74/171 53/72/161 57/75/164 63/81/172
f 66/83/173 65/84/174 33/51/175 36/61/176
f 36/58/177 35/57/178 67/85/179 66/86/180
f 68/87/181 67/88/182 35/59/183 34/52/184
f 65/84/185 68/87/186 34/52/187 33/51/188
f 74/89/189 73/90/190 75/91/191 76/92/192
f 76/93/193 77/94/194 78/95/195 74/96/196
f 79/97/197 78/98/198 77/99/199 80/100/200
f 73/90/201 79/97/202 80/100/203 75/91/204
f 70/101/205 69/102/206 73/90/207 74/89/208
f 65/84/209 66/83/210 76/92/211 75/91/212
f 66/86/210 67/85/213 77/94/214 76/93/211
f 71/103/215 70/104/205 74/96/208 78/95/216
f 72/105/217 71/106/215 78/98/216 79/97/218
f 67/88/213 68/87/219 80/100/220 77/99/214
f 69/102/206 72/105/217 79/97/218 73/90/207
f 68/87/219 65/84/209 75/91/212 80/100/220
