# This file uses centimeters as units for non-parametric coordinates.

mtllib Building4.mtl
g default
v -2.556967 8.241386 10.975188
v 4.131566 8.241386 10.975188
v -2.556967 8.241386 -10.975194
v 4.131566 8.241386 -10.975194
v -2.642096 7.793076 11.060317
v 4.216695 7.793076 11.060317
v 4.216695 7.793083 -11.060323
v -2.642096 7.793083 -11.060323
v -2.695406 7.793076 11.113627
v 4.270005 7.793076 11.113627
v 4.270005 8.241386 11.113627
v -2.695406 8.241386 11.113627
v -2.695406 8.241386 -11.113633
v 4.270005 8.241386 -11.113633
v 4.270005 7.793083 -11.113633
v -2.695406 7.793083 -11.113633
v -2.556967 7.841942 10.975188
v 4.131566 7.841942 10.975188
v 4.131566 7.841942 -10.975194
v -2.556967 7.841942 -10.975194
v 1.090593 7.841942 -7.785867
v 1.858402 7.841942 -7.785867
v 1.858402 7.841942 -9.050584
v 1.090593 7.841942 -9.050584
v 1.090593 8.632355 -7.785867
v 1.858402 8.632355 -7.785867
v 1.858402 8.632355 -9.050584
v 1.090593 8.632355 -9.050584
v 1.060190 8.632355 -7.755464
v 1.888807 8.632355 -7.755464
v 1.888807 8.796387 -7.755464
v 1.060190 8.796387 -7.755464
v 1.888807 8.632355 -9.080987
v 1.888807 8.796387 -9.080987
v 1.060190 8.632355 -9.080987
v 1.060190 8.796387 -9.080987
v -2.642096 0.219448 11.060317
v -2.642096 0.219456 -11.060323
v 4.216695 0.219456 -11.060323
v 4.216695 0.219448 11.060317
v -2.642096 -0.357708 11.060317
v -2.642096 -0.357700 -11.060323
v 4.216695 -0.357700 -11.060323
v 4.216695 -0.357708 11.060317
v -2.678644 -0.357708 11.096865
v -2.678644 -0.357700 -11.096868
v -2.678644 0.219448 11.096865
v -2.678644 0.219456 -11.096868
v 4.253243 0.219456 -11.096868
v 4.253243 -0.357700 -11.096868
v 4.253243 -0.357708 11.096865
v 4.253243 0.219448 11.096865
v 4.216695 6.404850 -11.060323
v 4.216695 6.404827 11.060317
v -2.642096 6.404827 11.060317
v -2.642096 6.404850 -11.060323
v -2.642096 6.033100 11.060317
v 4.216695 6.033100 11.060317
v 4.216695 6.033134 -11.060323
v -2.642096 6.033134 -11.060323
v -2.642096 4.653900 11.060317
v 4.216695 4.653900 11.060317
v 4.216695 4.653919 -11.060323
v -2.642096 4.653919 -11.060323
v -2.642096 4.347488 11.060317
v 4.216695 4.347488 11.060317
v 4.216695 4.347511 -11.060323
v -2.642096 4.347511 -11.060323
v -2.642096 2.298276 11.060317
v 4.216695 2.298276 11.060317
v 4.216695 2.298285 -11.060323
v -2.642096 2.298285 -11.060323
v 4.216695 2.730044 -11.060323
v 4.216695 2.730027 11.060317
v -2.642096 2.730027 11.060317
v -2.642096 2.730044 -11.060323
v -2.517815 6.033134 -10.936040
v -2.517815 6.033100 10.936036
v -2.517815 6.404827 10.936036
v -2.517815 6.404850 -10.936040
v 4.092414 6.404850 -10.936040
v 4.092414 6.033134 -10.936040
v 4.092414 6.033100 10.936036
v 4.092414 6.404827 10.936036
v -2.517816 4.347488 10.936036
v 4.092414 4.347488 10.936036
v 4.092414 4.653900 10.936036
v -2.517816 4.653900 10.936036
v 4.092414 4.347511 -10.936040
v 4.092414 4.653919 -10.936040
v -2.517816 4.653919 -10.936040
v -2.517816 4.347511 -10.936040
v -2.517815 2.298276 10.936036
v 4.092414 2.298276 10.936036
v 4.092414 2.730027 10.936036
v -2.517815 2.730027 10.936036
v 4.092414 2.298285 -10.936040
v 4.092414 2.730044 -10.936040
v -2.517816 2.730044 -10.936040
v -2.517816 2.298285 -10.936040
vt 0.375000 0.244460
vt 0.625000 0.244460
vt 0.625000 0.250000
vt 0.375000 0.250000
vt 0.375000 0.500000
vt 0.625000 0.500000
vt 0.625000 0.505540
vt 0.375000 0.505540
vt 0.875000 0.244460
vt 0.875000 0.250000
vt 0.125000 0.244460
vt 0.125000 0.250000
vt 0.625000 0.244460
vt 0.375000 0.244460
vt 0.875000 0.244460
vt 0.375000 0.505540
vt 0.625000 0.505540
vt 0.125000 0.244460
vt 0.625000 0.250000
vt 0.375000 0.250000
vt 0.375000 0.500000
vt 0.625000 0.500000
vt 0.875000 0.250000
vt 0.125000 0.250000
vt 0.625000 0.250000
vt 0.375000 0.250000
vt 0.625000 0.500000
vt 0.375000 0.500000
vt 0.625000 0.250000
vt 0.375000 0.250000
vt 0.625000 0.500000
vt 0.375000 0.500000
vt 0.625000 0.250000
vt 0.375000 0.250000
vt 0.625000 0.500000
vt 0.375000 0.500000
vt 0.375000 0.250000
vt 0.625000 0.250000
vt 0.625000 0.250000
vt 0.375000 0.250000
vt 0.625000 0.500000
vt 0.625000 0.500000
vt 0.375000 0.500000
vt 0.375000 0.500000
vt 0.375000 0.230080
vt 0.125000 0.230080
vt 0.375000 0.519920
vt 0.625000 0.519920
vt 0.875000 0.230080
vt 0.625000 0.230080
vt 0.375000 0.215700
vt 0.125000 0.215700
vt 0.375000 0.534300
vt 0.625000 0.534300
vt 0.875000 0.215700
vt 0.625000 0.215700
vt 0.125000 0.215700
vt 0.375000 0.215700
vt 0.375000 0.230080
vt 0.125000 0.230080
vt 0.375000 0.519920
vt 0.625000 0.519920
vt 0.625000 0.534300
vt 0.375000 0.534300
vt 0.625000 0.215700
vt 0.875000 0.215700
vt 0.875000 0.230080
vt 0.625000 0.230080
vt 0.625000 0.505971
vt 0.875000 0.244029
vt 0.625000 0.244029
vt 0.375000 0.244029
vt 0.125000 0.244029
vt 0.375000 0.505971
vt 0.375000 0.243913
vt 0.625000 0.243913
vt 0.625000 0.506087
vt 0.875000 0.243913
vt 0.125000 0.243913
vt 0.375000 0.506087
vt 0.375000 0.243484
vt 0.625000 0.243484
vt 0.625000 0.506515
vt 0.875000 0.243485
vt 0.125000 0.243485
vt 0.375000 0.506515
vt 0.375000 0.243389
vt 0.625000 0.243389
vt 0.625000 0.506611
vt 0.875000 0.243389
vt 0.125000 0.243389
vt 0.375000 0.506611
vt 0.375000 0.230726
vt 0.625000 0.230726
vt 0.625000 0.519274
vt 0.875000 0.230726
vt 0.125000 0.230726
vt 0.375000 0.519274
vt 0.625000 0.519140
vt 0.875000 0.230860
vt 0.625000 0.230860
vt 0.375000 0.230860
vt 0.125000 0.230860
vt 0.375000 0.519140
vt 0.125000 0.243913
vt 0.375000 0.243913
vt 0.375000 0.244029
vt 0.125000 0.244029
vt 0.375000 0.505971
vt 0.625000 0.505971
vt 0.625000 0.506087
vt 0.375000 0.506087
vt 0.625000 0.243913
vt 0.875000 0.243913
vt 0.875000 0.244029
vt 0.625000 0.244029
vt 0.375000 0.243389
vt 0.625000 0.243389
vt 0.625000 0.243484
vt 0.375000 0.243484
vt 0.875000 0.243389
vt 0.875000 0.243485
vt 0.375000 0.506515
vt 0.625000 0.506515
vt 0.625000 0.506611
vt 0.375000 0.506611
vt 0.125000 0.243389
vt 0.125000 0.243485
vt 0.375000 0.230726
vt 0.625000 0.230726
vt 0.625000 0.230860
vt 0.375000 0.230860
vt 0.875000 0.230726
vt 0.875000 0.230860
vt 0.375000 0.519140
vt 0.625000 0.519140
vt 0.625000 0.519274
vt 0.375000 0.519274
vt 0.125000 0.230726
vt 0.125000 0.230860
vn 0.000000 0.000000 1.000000
vn 0.000000 0.000000 1.000000
vn 0.000000 0.000000 1.000000
vn 0.000000 0.000000 1.000000
vn 0.000000 0.000000 -1.000000
vn 0.000000 0.000000 -1.000000
vn 0.000000 0.000000 -1.000000
vn 0.000000 0.000000 -1.000000
vn 1.000000 0.000000 0.000000
vn 1.000000 0.000000 0.000000
vn 1.000000 0.000000 0.000000
vn 1.000000 0.000000 0.000000
vn -1.000000 0.000000 0.000000
vn -1.000000 0.000000 0.000000
vn -1.000000 0.000000 0.000000
vn -1.000000 0.000000 0.000000
vn 0.000000 -1.000000 0.000000
vn 0.000000 -1.000000 0.000000
vn 0.000000 -1.000000 0.000000
vn 0.000000 -1.000000 0.000000
vn 0.000000 1.000000 0.000000
vn 0.000000 1.000000 0.000000
vn 0.000000 1.000000 0.000000
vn 0.000000 1.000000 0.000000
vn 0.000000 1.000000 0.000000
vn 0.000000 1.000000 0.000000
vn 0.000000 1.000000 0.000000
vn 0.000000 1.000000 0.000000
vn 0.000000 -1.000000 -0.000002
vn 0.000000 -1.000000 -0.000002
vn 0.000000 -1.000000 -0.000002
vn 0.000000 -1.000000 -0.000002
vn 0.000000 0.000000 -1.000000
vn 0.000000 0.000000 -1.000000
vn 0.000000 0.000000 -1.000000
vn 0.000000 0.000000 -1.000000
vn -1.000000 0.000000 0.000000
vn -1.000000 0.000000 0.000000
vn -1.000000 0.000000 0.000000
vn -1.000000 0.000000 0.000000
vn 0.000000 0.000000 1.000000
vn 0.000000 0.000000 1.000000
vn 0.000000 0.000000 1.000000
vn 0.000000 0.000000 1.000000
vn 1.000000 0.000000 0.000000
vn 1.000000 0.000000 0.000000
vn 1.000000 0.000000 0.000000
vn 1.000000 0.000000 0.000000
vn 0.000000 1.000000 0.000000
vn 0.000000 1.000000 0.000000
vn 0.000000 1.000000 0.000000
vn 0.000000 1.000000 0.000000
vn 0.000000 1.000000 -0.000000
vn 0.000000 1.000000 -0.000000
vn 0.000000 1.000000 -0.000000
vn 0.000000 1.000000 -0.000000
vn 0.000000 0.000000 1.000000
vn 0.000000 0.000000 1.000000
vn 0.000000 0.000000 1.000000
vn 0.000000 0.000000 1.000000
vn 1.000000 0.000000 0.000000
vn 1.000000 0.000000 0.000000
vn 1.000000 0.000000 0.000000
vn 1.000000 0.000000 0.000000
vn 0.000000 0.000000 -1.000000
vn 0.000000 0.000000 -1.000000
vn 0.000000 0.000000 -1.000000
vn 0.000000 0.000000 -1.000000
vn -1.000000 0.000000 0.000000
vn -1.000000 0.000000 0.000000
vn -1.000000 0.000000 0.000000
vn -1.000000 0.000000 0.000000
vn 0.000000 0.000000 1.000000
vn 0.000000 0.000000 1.000000
vn 0.000000 0.000000 1.000000
vn 0.000000 0.000000 1.000000
vn 1.000000 0.000000 0.000000
vn 1.000000 0.000000 0.000000
vn 1.000000 0.000000 0.000000
vn 1.000000 0.000000 0.000000
vn 0.000000 0.000000 -1.000000
vn 0.000000 0.000000 -1.000000
vn 0.000000 0.000000 -1.000000
vn 0.000000 0.000000 -1.000000
vn -1.000000 0.000000 0.000000
vn -1.000000 0.000000 0.000000
vn -1.000000 0.000000 0.000000
vn -1.000000 0.000000 0.000000
vn 0.000000 -1.000000 -0.000004
vn 0.000000 -1.000000 -0.000004
vn 0.000000 -1.000000 -0.000004
vn 0.000000 -1.000000 -0.000004
vn 0.000000 -1.000000 0.000005
vn 0.000000 -1.000000 0.000005
vn 0.000000 1.000000 0.000000
vn 0.000000 1.000000 0.000000
vn 0.000000 1.000000 0.000000
vn 0.000000 1.000000 0.000000
vn 0.000000 -1.000000 0.000005
vn 0.000000 -1.000000 0.000005
vn -1.000000 0.000000 0.000000
vn -1.000000 0.000000 0.000000
vn -1.000000 0.000000 0.000000
vn -1.000000 0.000000 0.000000
vn 0.000000 0.000000 -1.000000
vn 0.000000 0.000000 -1.000000
vn 0.000000 0.000000 -1.000000
vn 0.000000 0.000000 -1.000000
vn 1.000000 0.000000 0.000000
vn 1.000000 0.000000 0.000000
vn 1.000000 0.000000 0.000000
vn 1.000000 0.000000 0.000000
vn 0.000000 0.000000 1.000000
vn 0.000000 0.000000 1.000000
vn 0.000000 0.000000 1.000000
vn 0.000000 0.000000 1.000000
vn -1.000000 0.000000 0.000000
vn -1.000000 0.000000 0.000000
vn -1.000000 0.000000 0.000000
vn -1.000000 0.000000 0.000000
vn 0.000000 0.000000 -1.000000
vn 0.000000 0.000000 -1.000000
vn 0.000000 0.000000 -1.000000
vn 0.000000 0.000000 -1.000000
vn 1.000000 0.000000 0.000000
vn 1.000000 0.000000 0.000000
vn 1.000000 0.000000 0.000000
vn 1.000000 0.000000 0.000000
vn 0.000000 0.000000 1.000000
vn 0.000000 0.000000 1.000000
vn 0.000000 0.000000 1.000000
vn 0.000000 0.000000 1.000000
vn -0.000000 -1.000000 -0.000000
vn -0.000000 -1.000000 -0.000000
vn -0.000000 -1.000000 -0.000000
vn -0.000000 -1.000000 -0.000000
vn 0.000000 1.000000 0.000000
vn 0.000000 1.000000 0.000000
vn 0.000000 1.000000 0.000000
vn 0.000000 1.000000 0.000000
vn -0.000000 1.000000 0.000000
vn -0.000000 1.000000 0.000000
vn 0.000000 -1.000000 -0.000000
vn 0.000000 -1.000000 -0.000000
vn 0.000000 -1.000000 -0.000000
vn 0.000000 -1.000000 -0.000000
vn -0.000000 1.000000 0.000000
vn -0.000000 1.000000 0.000000
vn 1.000000 0.000000 0.000000
vn 1.000000 0.000000 0.000000
vn 1.000000 0.000000 0.000000
vn 1.000000 0.000000 0.000000
vn 0.000000 0.000000 1.000000
vn 0.000000 0.000000 1.000000
vn 0.000000 0.000000 1.000000
vn 0.000000 0.000000 1.000000
vn -1.000000 0.000000 0.000000
vn -1.000000 0.000000 0.000000
vn -1.000000 0.000000 0.000000
vn -1.000000 0.000000 0.000000
vn 0.000000 0.000000 -1.000000
vn 0.000000 0.000000 -1.000000
vn 0.000000 0.000000 -1.000000
vn 0.000000 0.000000 -1.000000
vn 0.000000 0.000000 1.000000
vn 0.000000 0.000000 1.000000
vn 0.000000 0.000000 1.000000
vn 0.000000 0.000000 1.000000
vn 1.000000 0.000000 0.000000
vn 1.000000 0.000000 0.000000
vn 1.000000 0.000000 0.000000
vn 1.000000 0.000000 0.000000
vn 0.000000 0.000000 -1.000000
vn 0.000000 0.000000 -1.000000
vn 0.000000 0.000000 -1.000000
vn 0.000000 0.000000 -1.000000
vn -1.000000 0.000000 0.000000
vn -1.000000 0.000000 0.000000
vn -1.000000 0.000000 0.000000
vn -1.000000 0.000000 0.000000
vn 0.000000 0.000000 1.000000
vn 0.000000 0.000000 1.000000
vn 0.000000 0.000000 1.000000
vn 0.000000 0.000000 1.000000
vn 1.000000 0.000000 0.000000
vn 1.000000 0.000000 0.000000
vn 1.000000 0.000000 0.000000
vn 1.000000 0.000000 0.000000
vn 0.000000 0.000000 -1.000000
vn 0.000000 0.000000 -1.000000
vn 0.000000 0.000000 -1.000000
vn 0.000000 0.000000 -1.000000
vn -1.000000 0.000000 0.000000
vn -1.000000 0.000000 0.000000
vn -1.000000 0.000000 0.000000
vn -1.000000 0.000000 0.000000
vn 0.000000 0.000000 1.000000
vn 0.000000 0.000000 1.000000
vn 0.000000 0.000000 1.000000
vn 0.000000 0.000000 1.000000
vn 1.000000 0.000000 0.000000
vn 1.000000 0.000000 0.000000
vn 1.000000 0.000000 0.000000
vn 1.000000 0.000000 0.000000
vn 0.000000 0.000000 -1.000000
vn 0.000000 0.000000 -1.000000
vn 0.000000 0.000000 -1.000000
vn 0.000000 0.000000 -1.000000
vn -1.000000 0.000000 0.000000
vn -1.000000 0.000000 0.000000
vn -1.000000 0.000000 0.000000
vn -1.000000 0.000000 0.000000
vn 0.000000 0.000000 1.000000
vn 0.000000 0.000000 1.000000
vn 0.000000 0.000000 1.000000
vn 0.000000 0.000000 1.000000
vn 1.000000 0.000000 0.000000
vn 1.000000 0.000000 0.000000
vn 1.000000 0.000000 0.000000
vn 1.000000 0.000000 0.000000
vn 0.000000 0.000000 -1.000000
vn 0.000000 0.000000 -1.000000
vn 0.000000 0.000000 -1.000000
vn 0.000000 0.000000 -1.000000
vn -1.000000 -0.000000 0.000000
vn -1.000000 -0.000000 0.000000
vn -1.000000 -0.000000 0.000000
vn -1.000000 -0.000000 0.000000
vn 1.000000 0.000000 0.000000
vn 1.000000 0.000000 0.000000
vn 1.000000 0.000000 0.000000
vn 1.000000 0.000000 0.000000
vn 0.000000 0.000000 1.000000
vn 0.000000 0.000000 1.000000
vn 0.000000 0.000000 1.000000
vn 0.000000 0.000000 1.000000
vn -1.000000 0.000000 0.000000
vn -1.000000 0.000000 0.000000
vn -1.000000 0.000000 0.000000
vn -1.000000 0.000000 0.000000
vn 0.000000 0.000000 -1.000000
vn 0.000000 0.000000 -1.000000
vn 0.000000 0.000000 -1.000000
vn 0.000000 0.000000 -1.000000
vn -0.000000 1.000000 0.000001
vn -0.000000 1.000000 0.000002
vn -0.000000 1.000000 0.000002
vn -0.000000 1.000000 0.000001
vn 0.000000 -1.000000 -0.000000
vn 0.000000 -1.000000 -0.000001
vn 0.000000 -1.000000 -0.000001
vn 0.000000 -1.000000 -0.000000
vn -0.000000 -1.000000 -0.000001
vn -0.000000 -1.000000 -0.000001
vn 0.000000 1.000000 0.000001
vn 0.000000 1.000000 0.000001
vn 0.000000 1.000000 0.000002
vn 0.000000 1.000000 0.000002
vn -0.000000 -1.000000 -0.000000
vn -0.000000 -1.000000 -0.000000
vn -0.000000 1.000000 0.000001
vn 0.000000 1.000000 0.000001
vn 0.000000 1.000000 0.000001
vn -0.000000 1.000000 0.000001
vn -0.000000 -1.000000 -0.000001
vn 0.000000 -1.000000 -0.000001
vn 0.000000 -1.000000 -0.000001
vn -0.000000 -1.000000 -0.000001
vn 0.000000 1.000000 0.000001
vn 0.000000 1.000000 0.000001
vn -0.000000 -1.000000 -0.000000
vn -0.000000 -1.000000 -0.000000
vn 0.000000 -1.000000 -0.000000
vn 0.000000 -1.000000 -0.000000
vn -0.000000 1.000000 0.000001
vn -0.000000 1.000000 0.000001
vn -0.000000 1.000000 0.000000
vn 0.000000 1.000000 0.000000
vn 0.000000 1.000000 0.000000
vn -0.000000 1.000000 0.000000
vn -0.000000 -1.000000 -0.000001
vn 0.000000 -1.000000 -0.000001
vn 0.000000 -1.000000 -0.000001
vn -0.000000 -1.000000 -0.000001
vn 0.000000 1.000000 0.000000
vn 0.000000 1.000000 0.000000
vn -0.000000 -1.000000 -0.000000
vn -0.000000 -1.000000 -0.000000
vn 0.000000 -1.000000 -0.000000
vn 0.000000 -1.000000 -0.000000
vn -0.000000 1.000000 0.000000
vn -0.000000 1.000000 0.000000
g Building4 PROPS
usemtl lambert3SG
f 9/1/1 10/2/2 11/3/3 12/4/4
f 13/5/5 14/6/6 15/7/7 16/8/8
f 10/2/9 15/9/10 14/10/11 11/3/12
f 16/11/13 9/1/14 12/4/15 13/12/16
f 5/14/17 6/13/18 10/2/19 9/1/20
f 2/19/21 1/20/22 12/4/23 11/3/24
f 3/21/25 4/22/26 14/6/27 13/5/28
f 7/17/29 8/16/30 16/8/31 15/7/32
f 6/13/18 7/15/29 15/9/32 10/2/19
f 4/23/26 2/19/21 11/3/24 14/10/27
f 8/18/30 5/14/17 9/1/20 16/11/31
f 1/20/22 3/24/25 13/12/28 12/4/23
f 1/20/33 2/19/34 18/25/35 17/26/36
f 2/19/37 4/22/38 19/27/39 18/25/40
f 4/22/41 3/21/42 20/28/43 19/27/44
f 3/21/45 1/20/46 17/26/47 20/28/48
f 17/26/49 18/25/50 22/29/51 21/30/52
f 18/25/50 19/27/53 23/31/54 22/29/51
f 19/27/53 20/28/55 24/32/56 23/31/54
f 20/28/55 17/26/49 21/30/52 24/32/56
f 21/30/57 22/29/58 26/33/59 25/34/60
f 22/29/61 23/31/62 27/35/63 26/33/64
f 23/31/65 24/32/66 28/36/67 27/35/68
f 24/32/69 21/30/70 25/34/71 28/36/72
f 29/37/73 30/38/74 31/39/75 32/40/76
f 30/38/77 33/41/78 34/42/79 31/39/80
f 33/41/81 35/43/82 36/44/83 34/42/84
f 35/43/85 29/37/86 32/40/87 36/44/88
f 25/34/89 26/33/90 30/38/91 29/37/92
f 26/33/90 27/35/93 33/41/94 30/38/91
f 32/40/95 31/39/96 34/42/97 36/44/98
f 27/35/93 28/36/99 35/43/100 33/41/94
f 28/36/99 25/34/89 29/37/92 35/43/100
usemtl blinn1SG
f 77/105/101 78/106/102 79/107/103 80/108/104
f 80/109/105 81/110/106 82/111/107 77/112/108
f 83/113/109 82/114/110 81/115/111 84/116/112
f 78/106/113 83/113/114 84/116/115 79/107/116
usemtl lambert3SG
f 46/57/117 45/58/118 47/59/119 48/60/120
f 48/61/121 49/62/122 50/63/123 46/64/124
f 51/65/125 50/66/126 49/67/127 52/68/128
f 45/58/129 51/65/130 52/68/131 47/59/132
f 42/52/133 41/51/134 45/58/135 46/57/136
f 37/45/137 38/46/138 48/60/139 47/59/140
f 38/47/138 39/48/141 49/62/142 48/61/139
f 43/54/143 42/53/133 46/64/136 50/63/144
f 44/56/145 43/55/143 50/66/144 51/65/146
f 39/49/141 40/50/147 52/68/148 49/67/142
f 41/51/134 44/56/145 51/65/146 45/58/135
f 40/50/147 37/45/137 47/59/140 52/68/148
f 54/71/149 53/70/150 7/15/151 6/13/152
f 55/72/153 54/71/154 6/13/155 5/14/156
f 56/73/157 55/72/158 5/14/159 8/18/160
f 8/16/161 7/17/162 53/69/163 56/74/164
f 61/81/165 62/82/166 58/76/167 57/75/168
f 62/82/169 63/84/170 59/78/171 58/76/172
f 60/80/173 59/77/174 63/83/175 64/86/176
f 64/85/177 61/81/178 57/75/179 60/79/180
usemtl blinn1SG
f 85/117/181 86/118/182 87/119/183 88/120/184
f 86/118/185 89/121/186 90/122/187 87/119/188
f 91/123/189 90/124/190 89/125/191 92/126/192
f 92/127/193 85/117/194 88/120/195 91/128/196
f 93/129/197 94/130/198 95/131/199 96/132/200
f 94/130/201 97/133/202 98/134/203 95/131/204
f 99/135/205 98/136/206 97/137/207 100/138/208
f 100/139/209 93/129/210 96/132/211 99/140/212
usemtl lambert3SG
f 37/45/213 40/50/214 70/94/215 69/93/216
f 40/50/217 39/49/218 71/96/219 70/94/220
f 72/98/221 71/95/222 39/48/223 38/47/224
f 38/46/225 37/45/226 69/93/227 72/97/228
f 74/101/229 73/100/230 67/90/231 66/88/232
f 75/102/233 74/101/234 66/88/235 65/87/236
f 76/103/237 75/102/238 65/87/239 68/91/240
f 68/92/241 67/89/242 73/99/243 76/104/244
f 60/79/245 57/75/246 78/106/247 77/105/248
f 55/72/249 56/73/250 80/108/251 79/107/252
f 56/74/250 53/69/253 81/110/254 80/109/251
f 59/77/255 60/80/245 77/112/248 82/111/256
f 58/76/257 59/78/255 82/114/256 83/113/258
f 53/70/253 54/71/259 84/116/260 81/115/254
f 57/75/246 58/76/257 83/113/258 78/106/247
f 54/71/259 55/72/249 79/107/252 84/116/260
f 65/87/261 66/88/262 86/118/263 85/117/264
f 62/82/265 61/81/266 88/120/267 87/119/268
f 66/88/262 67/90/269 89/121/270 86/118/263
f 63/84/271 62/82/265 87/119/268 90/122/272
f 64/86/273 63/83/271 90/124/272 91/123/274
f 67/89/269 68/92/275 92/126/276 89/125/270
f 68/91/275 65/87/261 85/117/264 92/127/276
f 61/81/266 64/85/273 91/128/274 88/120/267
f 69/93/277 70/94/278 94/130/279 93/129/280
f 74/101/281 75/102/282 96/132/283 95/131/284
f 70/94/278 71/96/285 97/133/286 94/130/279
f 73/100/287 74/101/281 95/131/284 98/134/288
f 76/104/289 73/99/287 98/136/288 99/135/290
f 71/95/285 72/98/291 100/138/292 97/137/286
f 72/97/291 69/93/277 93/129/280 100/139/292
f 75/102/282 76/103/289 99/140/290 96/132/283
