# This file uses centimeters as units for non-parametric coordinates.

mtllib Building3.mtl
g default
v -2.556967 46.939575 2.556968
v 2.556967 46.939575 2.556968
v -2.556967 46.939575 -2.556970
v 2.556967 46.939575 -2.556970
v -2.642096 46.491264 2.642096
v 2.642096 46.491264 2.642096
v 2.642096 46.491272 -2.642099
v -2.642096 46.491272 -2.642099
v -2.695406 46.491264 2.695407
v 2.695406 46.491264 2.695407
v 2.695406 46.939575 2.695407
v -2.695406 46.939575 2.695407
v -2.695406 46.939575 -2.695409
v 2.695406 46.939575 -2.695409
v 2.695406 46.491272 -2.695409
v -2.695406 46.491272 -2.695409
v -2.556967 46.540131 2.556968
v 2.556967 46.540131 2.556968
v 2.556967 46.540131 -2.556970
v -2.556967 46.540131 -2.556970
v 1.090593 46.540131 0.632357
v 1.858402 46.540131 0.632357
v 1.858402 46.540131 -0.632360
v 1.090593 46.540131 -0.632360
v 1.090593 47.896393 0.632357
v 1.858402 47.896393 0.632357
v 1.858402 47.896393 -0.632360
v 1.090593 47.896393 -0.632360
v 1.060190 47.896393 0.662761
v 1.888807 47.896393 0.662761
v 1.888807 48.060425 0.662761
v 1.060190 48.060425 0.662761
v 1.888807 47.896393 -0.662763
v 1.888807 48.060425 -0.662763
v 1.060190 47.896393 -0.662763
v 1.060190 48.060425 -0.662763
v -2.642096 0.219448 2.642096
v -2.642096 0.219456 -2.642099
v 2.642096 0.219456 -2.642099
v 2.642096 0.219448 2.642096
v -2.642096 -0.357708 2.642096
v -2.642096 -0.357700 -2.642099
v 2.642096 -0.357700 -2.642099
v 2.642096 -0.357708 2.642096
v -2.678644 -0.357708 2.678641
v -2.678644 -0.357700 -2.678643
v -2.678644 0.219448 2.678641
v -2.678644 0.219456 -2.678643
v 2.678644 0.219456 -2.678643
v 2.678644 -0.357700 -2.678643
v 2.678644 -0.357708 2.678641
v 2.678644 0.219448 2.678641
v 2.642096 45.103039 -2.642099
v 2.642096 45.103016 2.642096
v -2.642096 45.103016 2.642096
v -2.642096 45.103039 -2.642099
v -2.642096 44.731289 2.642096
v 2.642096 44.731289 2.642096
v 2.642096 44.731323 -2.642099
v -2.642096 44.731323 -2.642099
v -2.642096 43.352089 2.642096
v 2.642096 43.352089 2.642096
v 2.642096 43.352108 -2.642099
v -2.642096 43.352108 -2.642099
v -2.642096 43.045677 2.642096
v 2.642096 43.045677 2.642096
v 2.642096 43.045700 -2.642099
v -2.642096 43.045700 -2.642099
v -2.642096 2.298276 2.642096
v 2.642096 2.298276 2.642096
v 2.642096 2.298285 -2.642099
v -2.642096 2.298285 -2.642099
v 2.642096 2.730044 -2.642099
v 2.642096 2.730027 2.642096
v -2.642096 2.730027 2.642096
v -2.642096 2.730044 -2.642099
vt 0.375000 0.244460
vt 0.625000 0.244460
vt 0.625000 0.250000
vt 0.375000 0.250000
vt 0.375000 0.500000
vt 0.625000 0.500000
vt 0.625000 0.505540
vt 0.375000 0.505540
vt 0.875000 0.244460
vt 0.875000 0.250000
vt 0.125000 0.244460
vt 0.125000 0.250000
vt 0.625000 0.244460
vt 0.375000 0.244460
vt 0.875000 0.244460
vt 0.375000 0.505540
vt 0.625000 0.505540
vt 0.125000 0.244460
vt 0.625000 0.250000
vt 0.375000 0.250000
vt 0.375000 0.500000
vt 0.625000 0.500000
vt 0.875000 0.250000
vt 0.125000 0.250000
vt 0.625000 0.250000
vt 0.375000 0.250000
vt 0.625000 0.500000
vt 0.375000 0.500000
vt 0.625000 0.250000
vt 0.375000 0.250000
vt 0.625000 0.500000
vt 0.375000 0.500000
vt 0.625000 0.250000
vt 0.375000 0.250000
vt 0.625000 0.500000
vt 0.375000 0.500000
vt 0.375000 0.250000
vt 0.625000 0.250000
vt 0.625000 0.250000
vt 0.375000 0.250000
vt 0.625000 0.500000
vt 0.625000 0.500000
vt 0.375000 0.500000
vt 0.375000 0.500000
vt 0.375000 0.230080
vt 0.125000 0.230080
vt 0.375000 0.519920
vt 0.625000 0.519920
vt 0.875000 0.230080
vt 0.625000 0.230080
vt 0.375000 0.215700
vt 0.125000 0.215700
vt 0.375000 0.534300
vt 0.625000 0.534300
vt 0.875000 0.215700
vt 0.625000 0.215700
vt 0.125000 0.215700
vt 0.375000 0.215700
vt 0.375000 0.230080
vt 0.125000 0.230080
vt 0.375000 0.519920
vt 0.625000 0.519920
vt 0.625000 0.534300
vt 0.375000 0.534300
vt 0.625000 0.215700
vt 0.875000 0.215700
vt 0.875000 0.230080
vt 0.625000 0.230080
vt 0.625000 0.505971
vt 0.875000 0.244029
vt 0.625000 0.244029
vt 0.375000 0.244029
vt 0.125000 0.244029
vt 0.375000 0.505971
vt 0.375000 0.243913
vt 0.625000 0.243913
vt 0.625000 0.506087
vt 0.875000 0.243913
vt 0.125000 0.243913
vt 0.375000 0.506087
vt 0.375000 0.243484
vt 0.625000 0.243484
vt 0.625000 0.506515
vt 0.875000 0.243485
vt 0.125000 0.243485
vt 0.375000 0.506515
vt 0.375000 0.243389
vt 0.625000 0.243389
vt 0.625000 0.506611
vt 0.875000 0.243389
vt 0.125000 0.243389
vt 0.375000 0.506611
vt 0.375000 0.230726
vt 0.625000 0.230726
vt 0.625000 0.519274
vt 0.875000 0.230726
vt 0.125000 0.230726
vt 0.375000 0.519274
vt 0.625000 0.519140
vt 0.875000 0.230860
vt 0.625000 0.230860
vt 0.375000 0.230860
vt 0.125000 0.230860
vt 0.375000 0.519140
vn 0.000000 0.000000 1.000000
vn 0.000000 0.000000 1.000000
vn 0.000000 0.000000 1.000000
vn 0.000000 0.000000 1.000000
vn 0.000000 0.000000 -1.000000
vn 0.000000 0.000000 -1.000000
vn 0.000000 0.000000 -1.000000
vn 0.000000 0.000000 -1.000000
vn 1.000000 0.000000 0.000000
vn 1.000000 0.000000 0.000000
vn 1.000000 0.000000 0.000000
vn 1.000000 0.000000 0.000000
vn -1.000000 0.000000 0.000000
vn -1.000000 0.000000 0.000000
vn -1.000000 0.000000 0.000000
vn -1.000000 0.000000 0.000000
vn 0.000000 -1.000000 -0.000016
vn 0.000000 -1.000000 -0.000016
vn 0.000000 -1.000000 -0.000016
vn 0.000000 -1.000000 -0.000016
vn 0.000000 1.000000 0.000008
vn 0.000000 1.000000 0.000008
vn 0.000000 1.000000 0.000008
vn 0.000000 1.000000 0.000008
vn 0.000000 1.000000 -0.000008
vn 0.000000 1.000000 -0.000008
vn 0.000000 1.000000 -0.000008
vn 0.000000 1.000000 -0.000008
vn 0.000000 -1.000000 0.000016
vn 0.000000 -1.000000 0.000016
vn 0.000000 -1.000000 0.000016
vn 0.000000 -1.000000 0.000016
vn 0.000000 0.000000 -1.000000
vn 0.000000 0.000000 -1.000000
vn 0.000000 0.000000 -1.000000
vn 0.000000 0.000000 -1.000000
vn -1.000000 0.000000 0.000000
vn -1.000000 0.000000 0.000000
vn -1.000000 0.000000 0.000000
vn -1.000000 0.000000 0.000000
vn 0.000000 0.000000 1.000000
vn 0.000000 0.000000 1.000000
vn 0.000000 0.000000 1.000000
vn 0.000000 0.000000 1.000000
vn 1.000000 0.000000 0.000000
vn 1.000000 0.000000 0.000000
vn 1.000000 0.000000 0.000000
vn 1.000000 0.000000 0.000000
vn 0.000000 1.000000 0.000000
vn 0.000000 1.000000 0.000002
vn 0.000000 1.000000 0.000002
vn 0.000000 1.000000 0.000001
vn 0.000000 1.000000 -0.000002
vn 0.000000 1.000000 -0.000001
vn 0.000000 1.000000 -0.000000
vn 0.000000 1.000000 -0.000001
vn 0.000000 0.000000 1.000000
vn 0.000000 0.000000 1.000000
vn 0.000000 0.000000 1.000000
vn 0.000000 0.000000 1.000000
vn 1.000000 0.000000 0.000000
vn 1.000000 0.000000 0.000000
vn 1.000000 0.000000 0.000000
vn 1.000000 0.000000 0.000000
vn 0.000000 0.000000 -1.000000
vn 0.000000 0.000000 -1.000000
vn 0.000000 0.000000 -1.000000
vn 0.000000 0.000000 -1.000000
vn -1.000000 0.000000 0.000000
vn -1.000000 0.000000 0.000000
vn -1.000000 0.000000 0.000000
vn -1.000000 0.000000 0.000000
vn 0.000000 0.000000 1.000000
vn 0.000000 0.000000 1.000000
vn 0.000000 0.000000 1.000000
vn 0.000000 0.000000 1.000000
vn 1.000000 0.000000 0.000000
vn 1.000000 0.000000 0.000000
vn 1.000000 0.000000 0.000000
vn 1.000000 0.000000 0.000000
vn 0.000000 0.000000 -1.000000
vn 0.000000 0.000000 -1.000000
vn 0.000000 0.000000 -1.000000
vn 0.000000 0.000000 -1.000000
vn -1.000000 0.000000 0.000000
vn -1.000000 0.000000 0.000000
vn -1.000000 0.000000 0.000000
vn -1.000000 0.000000 0.000000
vn 0.000000 -1.000000 -0.000015
vn 0.000000 -1.000000 -0.000015
vn 0.000000 -1.000000 -0.000015
vn 0.000000 -1.000000 -0.000015
vn 0.000000 -1.000000 -0.000017
vn 0.000000 -1.000000 -0.000017
vn 0.000000 1.000000 0.000000
vn 0.000000 1.000000 0.000000
vn 0.000000 1.000000 0.000000
vn 0.000000 1.000000 0.000000
vn 0.000000 -1.000000 -0.000017
vn 0.000000 -1.000000 -0.000017
vn -1.000000 0.000000 0.000000
vn -1.000000 0.000000 0.000000
vn -1.000000 0.000000 0.000000
vn -1.000000 0.000000 0.000000
vn 0.000000 0.000000 -1.000000
vn 0.000000 0.000000 -1.000000
vn 0.000000 0.000000 -1.000000
vn 0.000000 0.000000 -1.000000
vn 1.000000 0.000000 0.000000
vn 1.000000 0.000000 0.000000
vn 1.000000 0.000000 0.000000
vn 1.000000 0.000000 0.000000
vn 0.000000 0.000000 1.000000
vn 0.000000 0.000000 1.000000
vn 0.000000 0.000000 1.000000
vn 0.000000 0.000000 1.000000
vn -1.000000 0.000000 0.000000
vn -1.000000 0.000000 0.000000
vn -1.000000 0.000000 0.000000
vn -1.000000 0.000000 0.000000
vn 0.000000 0.000000 -1.000000
vn 0.000000 0.000000 -1.000000
vn 0.000000 0.000000 -1.000000
vn 0.000000 0.000000 -1.000000
vn 1.000000 0.000000 0.000000
vn 1.000000 0.000000 0.000000
vn 1.000000 0.000000 0.000000
vn 1.000000 0.000000 0.000000
vn 0.000000 0.000000 1.000000
vn 0.000000 0.000000 1.000000
vn 0.000000 0.000000 1.000000
vn 0.000000 0.000000 1.000000
vn 0.000000 -1.000000 -0.000001
vn 0.000000 -1.000000 -0.000001
vn 0.000000 -1.000000 -0.000001
vn 0.000000 -1.000000 -0.000001
vn 0.000000 1.000000 0.000001
vn 0.000000 1.000000 0.000001
vn 0.000000 1.000000 0.000001
vn 0.000000 1.000000 0.000001
vn 0.000000 1.000000 0.000001
vn 0.000000 1.000000 0.000001
vn 0.000000 -1.000000 -0.000001
vn 0.000000 -1.000000 -0.000001
vn 0.000000 -1.000000 -0.000001
vn 0.000000 -1.000000 -0.000001
vn 0.000000 1.000000 0.000001
vn 0.000000 1.000000 0.000001
vn 1.000000 0.000000 0.000000
vn 1.000000 0.000000 0.000000
vn 0.000000 0.000000 1.000000
vn 0.000000 0.000000 1.000000
vn -1.000000 0.000000 0.000000
vn -1.000000 0.000000 0.000000
vn 0.000000 0.000000 -1.000000
vn 0.000000 0.000000 -1.000000
vn 0.000000 0.000000 1.000000
vn 0.000000 0.000000 1.000000
vn 1.000000 0.000000 0.000000
vn 1.000000 0.000000 0.000000
vn 0.000000 0.000000 -1.000000
vn 0.000000 0.000000 -1.000000
vn -1.000000 0.000000 0.000000
vn -1.000000 0.000000 0.000000
vn 0.000000 0.000000 1.000000
vn 0.000000 0.000000 1.000000
vn 1.000000 0.000000 0.000000
vn 1.000000 0.000000 0.000000
vn 0.000000 0.000000 -1.000000
vn 0.000000 0.000000 -1.000000
vn -1.000000 0.000000 0.000000
vn -1.000000 0.000000 0.000000
vn 0.000000 0.000000 1.000000
vn 0.000000 0.000000 1.000000
vn 0.000000 0.000000 1.000000
vn 0.000000 0.000000 1.000000
vn 1.000000 -0.000000 0.000000
vn 1.000000 -0.000000 0.000000
vn 1.000000 0.000000 0.000000
vn 1.000000 0.000000 0.000000
vn 0.000000 0.000000 -1.000000
vn 0.000000 0.000000 -1.000000
vn 0.000000 0.000000 -1.000000
vn 0.000000 0.000000 -1.000000
vn -1.000000 -0.000000 0.000000
vn -1.000000 -0.000000 0.000000
vn -1.000000 0.000000 0.000000
vn -1.000000 0.000000 0.000000
vn 0.000000 0.000000 1.000000
vn 0.000000 0.000000 1.000000
vn 1.000000 -0.000000 0.000000
vn 1.000000 -0.000000 0.000000
vn 0.000000 0.000000 -1.000000
vn 0.000000 0.000000 -1.000000
vn -1.000000 -0.000000 0.000000
vn -1.000000 -0.000000 0.000000
g Building3 PROPS
usemtl lambert3SG
f 9/1/1 10/2/2 11/3/3 12/4/4
f 13/5/5 14/6/6 15/7/7 16/8/8
f 10/2/9 15/9/10 14/10/11 11/3/12
f 16/11/13 9/1/14 12/4/15 13/12/16
f 5/14/17 6/13/18 10/2/19 9/1/20
f 2/19/21 1/20/22 12/4/23 11/3/24
f 3/21/25 4/22/26 14/6/27 13/5/28
f 7/17/29 8/16/30 16/8/31 15/7/32
f 6/13/18 7/15/29 15/9/32 10/2/19
f 4/23/26 2/19/21 11/3/24 14/10/27
f 8/18/30 5/14/17 9/1/20 16/11/31
f 1/20/22 3/24/25 13/12/28 12/4/23
f 1/20/33 2/19/34 18/25/35 17/26/36
f 2/19/37 4/22/38 19/27/39 18/25/40
f 4/22/41 3/21/42 20/28/43 19/27/44
f 3/21/45 1/20/46 17/26/47 20/28/48
f 17/26/49 18/25/50 22/29/51 21/30/52
f 18/25/50 19/27/53 23/31/54 22/29/51
f 19/27/53 20/28/55 24/32/56 23/31/54
f 20/28/55 17/26/49 21/30/52 24/32/56
f 21/30/57 22/29/58 26/33/59 25/34/60
f 22/29/61 23/31/62 27/35/63 26/33/64
f 23/31/65 24/32/66 28/36/67 27/35/68
f 24/32/69 21/30/70 25/34/71 28/36/72
f 29/37/73 30/38/74 31/39/75 32/40/76
f 30/38/77 33/41/78 34/42/79 31/39/80
f 33/41/81 35/43/82 36/44/83 34/42/84
f 35/43/85 29/37/86 32/40/87 36/44/88
f 25/34/89 26/33/90 30/38/91 29/37/92
f 26/33/90 27/35/93 33/41/94 30/38/91
f 32/40/95 31/39/96 34/42/97 36/44/98
f 27/35/93 28/36/99 35/43/100 33/41/94
f 28/36/99 25/34/89 29/37/92 35/43/100
usemtl blinn1SG
f 60/79/101 57/75/102 55/72/103 56/73/104
f 56/74/105 53/69/106 59/77/107 60/80/108
f 58/76/109 59/78/110 53/70/111 54/71/112
f 57/75/113 58/76/114 54/71/115 55/72/116
usemtl lambert3SG
f 46/57/117 45/58/118 47/59/119 48/60/120
f 48/61/121 49/62/122 50/63/123 46/64/124
f 51/65/125 50/66/126 49/67/127 52/68/128
f 45/58/129 51/65/130 52/68/131 47/59/132
f 42/52/133 41/51/134 45/58/135 46/57/136
f 37/45/137 38/46/138 48/60/139 47/59/140
f 38/47/138 39/48/141 49/62/142 48/61/139
f 43/54/143 42/53/133 46/64/136 50/63/144
f 44/56/145 43/55/143 50/66/144 51/65/146
f 39/49/141 40/50/147 52/68/148 49/67/142
f 41/51/134 44/56/145 51/65/146 45/58/135
f 40/50/147 37/45/137 47/59/140 52/68/148
f 54/71/112 53/70/111 7/15/149 6/13/150
f 55/72/116 54/71/115 6/13/151 5/14/152
f 56/73/104 55/72/103 5/14/153 8/18/154
f 8/16/155 7/17/156 53/69/106 56/74/105
f 61/81/157 62/82/158 58/76/114 57/75/113
f 62/82/159 63/84/160 59/78/110 58/76/109
f 60/80/108 59/77/107 63/83/161 64/86/162
f 64/85/163 61/81/164 57/75/102 60/79/101
usemtl blinn1SG
f 65/87/165 66/88/166 62/82/158 61/81/157
f 66/88/167 67/90/168 63/84/160 62/82/159
f 64/86/162 63/83/161 67/89/169 68/92/170
f 68/91/171 65/87/172 61/81/164 64/85/163
f 69/93/173 70/94/174 74/101/175 75/102/176
f 70/94/177 71/96/178 73/100/179 74/101/180
f 76/104/181 73/99/182 71/95/183 72/98/184
f 72/97/185 69/93/186 75/102/187 76/103/188
usemtl lambert3SG
f 37/45/189 40/50/190 70/94/174 69/93/173
f 40/50/191 39/49/192 71/96/178 70/94/177
f 72/98/184 71/95/183 39/48/193 38/47/194
f 38/46/195 37/45/196 69/93/186 72/97/185
f 74/101/180 73/100/179 67/90/168 66/88/167
f 75/102/176 74/101/175 66/88/166 65/87/165
f 76/103/188 75/102/187 65/87/172 68/91/171
f 68/92/170 67/89/169 73/99/182 76/104/181
