# This file uses centimeters as units for non-parametric coordinates.

mtllib FarmBarn.mtl
g default
v 3.131807 -0.428586 1.608454
v 4.366698 -0.428586 2.404113
v 3.131807 1.667927 1.608454
v 4.366698 1.667927 2.404113
v 3.165952 1.667927 1.555461
v 4.400843 1.667927 2.351119
v 3.165952 -0.428586 1.555461
v 4.400843 -0.428586 2.351119
v -4.300770 -0.553822 8.409068
v 3.139914 -0.553822 8.409068
v -4.300770 3.526700 8.409068
v 3.139914 3.526700 8.409068
v -4.300770 3.526700 -8.409066
v 3.139914 3.526700 -8.409066
v -4.300770 -0.553822 -8.409066
v 3.139914 -0.553822 -8.409066
v -0.580428 -0.553822 8.409068
v -0.580428 -0.553822 -8.409066
v -0.580428 4.399135 -8.409066
v -0.580428 4.399135 8.409068
v -0.580428 4.553822 -8.409066
v -0.580428 4.553822 8.409068
v 3.176188 3.681387 8.409068
v 3.176188 3.681387 -8.409066
v -4.337044 3.681387 8.409068
v -4.337044 3.681387 -8.409066
v -0.580428 4.399135 8.540129
v 3.203713 3.511739 8.474599
v 3.239988 3.666426 8.474599
v -0.580428 4.553822 8.540129
v 3.203713 3.511739 -8.474595
v 3.239988 3.666426 -8.474595
v -0.580428 4.399135 -8.540128
v -0.580428 4.553822 -8.540128
v -4.364570 3.511740 8.474599
v -4.400844 3.666427 8.474599
v -4.364570 3.511740 -8.474595
v -4.400844 3.666427 -8.474595
v 3.139914 -0.432370 -1.590955
v 3.139914 -0.432370 1.590956
v 3.139914 1.689935 -1.590955
v 3.139914 1.689935 1.590956
v -1.588094 -0.432370 -1.590955
v -1.588094 -0.432370 1.590956
v -1.588094 1.689935 -1.590955
v -1.588094 1.689935 1.590956
v 3.178507 -0.428586 -1.625573
v 3.679877 -0.428586 -3.006391
v 3.178507 1.667927 -1.625573
v 3.679877 1.667927 -3.006391
v 3.119251 1.667927 -1.647088
v 3.620621 1.667927 -3.027906
v 3.119251 -0.428586 -1.647088
v 3.620621 -0.428586 -3.027906
vt 0.044617 0.603488
vt 0.044617 0.509625
vt 0.107222 0.509625
vt 0.107222 0.603488
vt 0.710070 0.498107
vt 0.710070 0.001992
vt 0.830440 0.001992
vt 0.830440 0.498107
vt 0.462364 0.501973
vt 0.462364 0.001992
vt 0.466927 0.001992
vt 0.466927 0.501973
vt 0.473455 0.501973
vt 0.473455 0.001992
vt 0.478018 0.001992
vt 0.478018 0.501973
vt 0.826225 0.998008
vt 0.826225 0.501893
vt 0.829808 0.703019
vt 0.829808 0.796882
vt 0.946596 0.501893
vt 0.892413 0.703019
vt 0.946596 0.998008
vt 0.892413 0.796882
vt 0.031651 0.607274
vt 0.072384 0.607274
vt 0.072384 0.669118
vt 0.031651 0.669118
vt 0.120446 0.714726
vt 0.079713 0.714726
vt 0.079713 0.652882
vt 0.120446 0.652882
vt 0.217795 0.690317
vt 0.194324 0.653889
vt 0.195887 0.652882
vt 0.219358 0.689309
vt 0.225749 0.689309
vt 0.249220 0.652882
vt 0.250783 0.653889
vt 0.227312 0.690317
vt 0.114587 0.501973
vt 0.114587 0.005858
vt 0.225403 0.005858
vt 0.225403 0.501973
vt 0.003771 0.005858
vt 0.003771 0.501973
vt 0.114587 0.001992
vt 0.227285 0.003925
vt 0.227285 0.503906
vt 0.114587 0.505839
vt 0.001889 0.003925
vt 0.001889 0.503906
vt 0.594292 0.498107
vt 0.594292 0.001992
vt 0.704038 0.001992
vt 0.704038 0.498107
vt 0.484546 0.001992
vt 0.484546 0.498107
vt 0.344771 0.501973
vt 0.454517 0.501973
vt 0.456399 0.503906
vt 0.344771 0.505839
vt 0.454517 0.005858
vt 0.456399 0.003925
vt 0.235025 0.501973
vt 0.233143 0.503906
vt 0.344771 0.005858
vt 0.344771 0.001992
vt 0.235025 0.005858
vt 0.233143 0.003925
vt 0.349573 0.509625
vt 0.443436 0.509625
vt 0.443436 0.649096
vt 0.349573 0.649096
vt 0.181466 0.509625
vt 0.275329 0.509625
vt 0.275329 0.649096
vt 0.181466 0.649096
vt 0.148009 0.652882
vt 0.162799 0.693614
vt 0.161051 0.694249
vt 0.146261 0.653516
vt 0.170292 0.693614
vt 0.185082 0.652882
vt 0.186830 0.653516
vt 0.172040 0.694249
vt 0.747287 0.611639
vt 0.601180 0.611639
vt 0.601180 0.501893
vt 0.721551 0.501893
vt 0.601180 0.721384
vt 0.721551 0.721384
vt 0.595361 0.619371
vt 0.449255 0.619371
vt 0.474991 0.509625
vt 0.595361 0.509625
vt 0.474991 0.729116
vt 0.595361 0.729116
vt 0.815843 0.614591
vt 0.789666 0.502963
vt 0.794229 0.501893
vt 0.820406 0.614591
vt 0.789666 0.726218
vt 0.794229 0.727288
vt 0.783846 0.502963
vt 0.757669 0.614591
vt 0.753106 0.614591
vt 0.779283 0.501893
vt 0.783846 0.726218
vt 0.779283 0.727288
vt 0.281148 0.509625
vt 0.343754 0.509625
vt 0.343754 0.649096
vt 0.281148 0.649096
vt 0.113042 0.509625
vt 0.175647 0.509625
vt 0.175647 0.649096
vt 0.113042 0.649096
vt 0.129524 0.714726
vt 0.127776 0.714726
vt 0.127776 0.652882
vt 0.129524 0.652882
vt 0.137019 0.652882
vt 0.138767 0.652882
vt 0.138767 0.714726
vt 0.137019 0.714726
vt 0.015327 0.509625
vt 0.038798 0.509625
vt 0.038798 0.571470
vt 0.015327 0.571470
vt 0.037235 0.509625
vt 0.037235 0.571470
vt 0.013764 0.509625
vt 0.013764 0.571470
vt 0.025360 0.637100
vt 0.001889 0.637100
vt 0.001889 0.575256
vt 0.025360 0.575256
vn -0.541624 0.000000 0.840621
vn -0.541624 0.000000 0.840621
vn -0.541624 0.000000 0.840621
vn -0.541624 0.000000 0.840621
vn 0.000000 1.000000 0.000000
vn 0.000000 1.000000 0.000000
vn 0.000000 1.000000 0.000000
vn 0.000000 1.000000 0.000000
vn 0.541624 0.000000 -0.840621
vn 0.541624 0.000000 -0.840621
vn 0.541624 0.000000 -0.840621
vn 0.541624 0.000000 -0.840621
vn 0.000000 -1.000000 -0.000000
vn 0.000000 -1.000000 -0.000000
vn 0.000000 -1.000000 -0.000000
vn 0.000000 -1.000000 -0.000000
vn 0.840633 0.000000 0.541605
vn 0.840633 0.000000 0.541605
vn 0.840633 0.000000 0.541605
vn 0.840633 0.000000 0.541605
vn -0.840633 0.000000 -0.541605
vn -0.840633 0.000000 -0.541605
vn -0.840633 0.000000 -0.541605
vn -0.840633 0.000000 -0.541605
vn 0.000000 0.000000 1.000000
vn 0.000000 0.000000 1.000000
vn 0.000000 0.000000 1.000000
vn 0.000000 0.000000 1.000000
vn -0.000000 1.000000 -0.000004
vn 0.000000 1.000000 0.000004
vn 0.226271 0.974064 0.000006
vn 0.226271 0.974064 -0.000006
vn 0.000000 0.000000 -1.000000
vn 0.000000 0.000000 -1.000000
vn 0.000000 0.000000 -1.000000
vn 0.000000 0.000000 -1.000000
vn 0.000000 -1.000000 0.000000
vn 0.000000 -1.000000 0.000000
vn 0.000000 -1.000000 0.000000
vn 0.000000 -1.000000 0.000000
vn 1.000000 0.000000 0.000000
vn 1.000000 0.000000 0.000000
vn 1.000000 0.000000 0.000000
vn 1.000000 0.000000 0.000000
vn -1.000000 0.000000 0.000000
vn -1.000000 0.000000 0.000000
vn -1.000000 0.000000 0.000000
vn -1.000000 0.000000 0.000000
vn 0.000000 -1.000000 0.000000
vn 0.000000 -1.000000 0.000000
vn 0.000000 0.000000 -1.000000
vn 0.000000 0.000000 -1.000000
vn -0.226271 0.974064 0.000006
vn -0.226271 0.974065 -0.000006
vn 0.000000 0.000000 1.000000
vn 0.000000 0.000000 1.000000
vn 0.000000 -0.001967 0.999998
vn 0.016774 -0.001967 0.999857
vn 0.016774 -0.001967 0.999857
vn 0.000000 -0.001967 0.999998
vn 0.973588 -0.228313 0.000000
vn 0.973588 -0.228313 0.000000
vn 0.973588 -0.228313 0.000000
vn 0.973588 -0.228313 0.000000
vn 0.016772 -0.001967 -0.999857
vn -0.000000 -0.001967 -0.999998
vn -0.000000 -0.001967 -0.999998
vn 0.016772 -0.001967 -0.999857
vn -0.016774 -0.001967 0.999857
vn -0.016774 -0.001967 0.999857
vn -0.016773 -0.001967 -0.999857
vn -0.016773 -0.001967 -0.999857
vn -0.973589 -0.228306 0.000000
vn -0.973589 -0.228306 0.000000
vn -0.973589 -0.228306 0.000000
vn -0.973589 -0.228306 0.000000
vn -0.000003 -1.000000 0.000001
vn -0.228313 -0.973588 0.000000
vn -0.228313 -0.973588 0.000000
vn -0.000003 -1.000000 0.000001
vn 0.000002 1.000000 0.000724
vn 0.227771 0.973715 0.000185
vn -0.228310 -0.973589 -0.000000
vn -0.228309 -0.973589 -0.000000
vn 0.227769 0.973715 -0.000185
vn 0.000005 -1.000000 -0.000002
vn 0.000005 -1.000000 -0.000002
vn -0.000003 1.000000 -0.000724
vn 0.228305 -0.973590 0.000000
vn 0.228305 -0.973590 0.000000
vn -0.227765 0.973716 0.000183
vn 0.228305 -0.973590 -0.000001
vn 0.228306 -0.973590 -0.000001
vn -0.227765 0.973716 -0.000183
vn 1.000000 -0.000000 0.000000
vn 1.000000 -0.000000 0.000000
vn 1.000000 -0.000000 0.000000
vn 1.000000 -0.000000 0.000000
vn 1.000000 0.000000 0.000000
vn 1.000000 0.000000 0.000000
vn 1.000000 0.000000 0.000000
vn 1.000000 0.000000 0.000000
vn 0.000000 1.000000 0.000000
vn 0.000000 1.000000 0.000000
vn 0.000000 1.000000 0.000000
vn 0.000000 1.000000 0.000000
vn 0.000000 0.000000 1.000000
vn 0.000000 0.000000 1.000000
vn 0.000000 0.000000 1.000000
vn 0.000000 0.000000 1.000000
vn 0.000000 -1.000000 0.000000
vn 0.000000 -1.000000 0.000000
vn 0.000000 -1.000000 0.000000
vn 0.000000 -1.000000 0.000000
vn 0.000000 0.000000 -1.000000
vn 0.000000 0.000000 -1.000000
vn 0.000000 0.000000 -1.000000
vn 0.000000 0.000000 -1.000000
vn 0.939956 0.000000 0.341295
vn 0.939956 0.000000 0.341295
vn 0.939956 0.000000 0.341295
vn 0.939956 0.000000 0.341295
vn 0.000000 1.000000 0.000000
vn 0.000000 1.000000 0.000000
vn 0.000000 1.000000 0.000000
vn 0.000000 1.000000 0.000000
vn -0.939956 0.000000 -0.341295
vn -0.939956 0.000000 -0.341295
vn -0.939956 0.000000 -0.341295
vn -0.939956 0.000000 -0.341295
vn 0.000000 -1.000000 0.000000
vn 0.000000 -1.000000 0.000000
vn 0.000000 -1.000000 0.000000
vn 0.000000 -1.000000 0.000000
vn 0.341275 0.000000 -0.939963
vn 0.341275 0.000000 -0.939963
vn 0.341275 0.000000 -0.939963
vn 0.341275 0.000000 -0.939963
vn -0.341326 0.000000 0.939945
vn -0.341326 0.000000 0.939945
vn -0.341326 0.000000 0.939945
vn -0.341326 0.000000 0.939945
g FarmBarn PROPS
usemtl lambert3SG
f 1/127/1 2/128/2 4/129/3 3/130/4
f 3/33/5 4/34/6 6/35/7 5/36/8
f 5/135/9 6/136/10 8/137/11 7/138/12
f 7/37/13 8/38/14 2/39/15 1/40/16
f 2/128/17 8/131/18 6/132/19 4/129/20
f 7/133/21 1/127/22 3/130/23 5/134/24
f 20/87/25 17/88/26 10/89/27 12/90/28
f 21/41/29 22/42/30 23/43/31 24/44/32
f 18/93/33 19/94/34 14/95/35 16/96/36
f 17/53/37 18/54/38 16/55/39 10/56/40
f 44/1/41 43/2/42 45/3/43 46/4/44
f 15/5/45 9/6/46 11/7/47 13/8/48
f 15/57/49 18/54/38 17/53/37 9/58/50
f 13/97/51 19/94/34 18/93/33 15/98/52
f 25/45/53 22/42/30 21/41/29 26/46/54
f 9/91/55 17/88/26 20/87/25 11/92/56
f 27/99/57 28/100/58 29/101/59 30/102/60
f 28/9/61 31/10/62 32/11/63 29/12/64
f 31/105/65 33/106/66 34/107/67 32/108/68
f 35/103/69 27/99/57 30/102/60 36/104/70
f 33/106/66 37/109/71 38/110/72 34/107/67
f 37/13/73 35/14/74 36/15/75 38/16/76
f 20/59/77 12/60/78 28/61/79 27/62/80
f 23/43/31 22/42/30 30/47/81 29/48/82
f 12/60/78 14/63/83 31/64/84 28/61/79
f 24/44/32 23/43/31 29/48/82 32/49/85
f 14/63/83 19/67/86 33/68/87 31/64/84
f 21/41/29 24/44/32 32/49/85 34/50/88
f 11/65/89 20/59/77 27/62/80 35/66/90
f 22/42/30 25/45/53 36/51/91 30/47/81
f 19/67/86 13/69/92 37/70/93 33/68/87
f 26/46/54 21/41/29 34/50/88 38/52/94
f 13/69/92 11/65/89 35/66/90 37/70/93
f 25/45/53 26/46/54 38/52/94 36/51/91
f 10/17/95 16/18/96 39/19/97 40/20/98
f 16/18/96 14/21/99 41/22/100 39/19/97
f 14/21/99 12/23/101 42/24/102 41/22/100
f 12/23/101 10/17/95 40/20/98 42/24/102
f 40/71/103 39/72/104 43/73/105 44/74/106
f 39/111/107 41/112/108 45/113/109 43/114/110
f 41/75/111 42/76/112 46/77/113 45/78/114
f 42/115/115 40/116/116 44/117/117 46/118/118
f 47/25/119 48/26/120 50/27/121 49/28/122
f 49/79/123 50/80/124 52/81/125 51/82/126
f 51/29/127 52/30/128 54/31/129 53/32/130
f 53/83/131 54/84/132 48/85/133 47/86/134
f 48/119/135 54/120/136 52/121/137 50/122/138
f 53/123/139 47/124/140 49/125/141 51/126/142
