# This file uses centimeters as units for non-parametric coordinates.

mtllib HouseAngled.mtl
g default
v -1.558113 -0.194087 0.658801
v 1.000000 -0.194087 0.658801
v -1.558113 0.936491 0.658801
v 1.000000 0.936491 0.658801
v -1.558113 0.936491 -0.658803
v 2.000000 0.936491 -0.658803
v -1.558113 -0.194087 -0.658803
v 2.000000 -0.194087 -0.658803
v 2.000000 -0.194087 1.571372
v 1.000000 -0.194087 1.571387
v 2.000000 0.936491 1.571372
v 1.000000 0.936491 1.571387
v -1.558113 1.452413 -0.000001
v 1.500000 1.452413 1.571379
v 1.500000 -0.194087 1.571379
v 1.500000 -0.194087 -0.000001
v -1.558113 -0.194087 -0.000001
v -1.558113 1.492787 -0.000001
v 1.511326 1.501928 -0.007058
v 2.018413 0.974523 -0.674611
v -1.558113 0.976866 -0.690423
v 1.500000 1.488102 1.571379
v 2.036826 0.972180 1.571372
v -1.558113 0.976866 0.690421
v 0.981587 0.974523 0.674609
v 0.963174 0.972180 1.571387
v -1.590386 1.452413 -0.000001
v -1.590386 0.936491 -0.658803
v -1.590386 1.492787 -0.000001
v -1.590386 0.976866 -0.690423
v -1.590386 0.936491 0.658801
v -1.590386 0.976866 0.690421
v 1.500000 1.452413 1.603652
v 2.000000 0.936491 1.603644
v 2.036826 0.972180 1.603644
v 1.500000 1.488102 1.603652
v 1.000000 0.936491 1.603659
v 0.963175 0.972180 1.603659
v -1.284189 0.677933 -0.138078
v -1.078018 0.677933 -0.138078
v -1.284189 1.523987 -0.138078
v -1.078018 1.523987 -0.138078
v -1.284189 1.523987 -0.344251
v -1.078018 1.523987 -0.344251
v -1.284189 0.677933 -0.344251
v -1.078018 0.677933 -0.344251
vt 0.375000 0.000000
vt 0.625000 0.000000
vt 0.375000 0.250000
vt 0.625000 0.250000
vt 0.375000 0.500000
vt 0.625000 0.500000
vt 0.375000 0.750000
vt 0.625000 0.750000
vt 0.375000 1.000000
vt 0.625000 1.000000
vt 0.875000 0.000000
vt 0.875000 0.250000
vt 0.125000 0.000000
vt 0.125000 0.250000
vt 0.625000 0.000000
vt 0.875000 0.000000
vt 0.875000 0.250000
vt 0.625000 0.250000
vt 0.250000 0.250000
vt 0.375000 0.375000
vt 0.625000 0.375000
vt 0.750000 0.250000
vt 0.750000 0.250000
vt 0.750000 0.000000
vt 0.625000 0.875000
vt 0.750000 0.000000
vt 0.250000 0.000000
vt 0.375000 0.875000
vt 0.625000 0.500000
vt 0.375000 0.500000
vt 0.375000 0.375000
vt 0.750000 0.250000
vt 0.875000 0.250000
vt 0.875000 0.250000
vt 0.375000 0.250000
vt 0.625000 0.250000
vt 0.625000 0.250000
vt 0.375000 0.500000
vt 0.375000 0.375000
vt 0.375000 0.375000
vt 0.375000 0.500000
vt 0.750000 0.250000
vt 0.875000 0.250000
vt 0.875000 0.250000
vt 0.750000 0.250000
vt 0.375000 0.250000
vt 0.375000 0.250000
vt 0.625000 0.250000
vt 0.625000 0.250000
vt 0.375000 0.000000
vt 0.625000 0.000000
vt 0.625000 0.250000
vt 0.375000 0.250000
vt 0.625000 0.500000
vt 0.375000 0.500000
vt 0.625000 0.750000
vt 0.375000 0.750000
vt 0.625000 1.000000
vt 0.375000 1.000000
vt 0.875000 0.000000
vt 0.875000 0.250000
vt 0.125000 0.000000
vt 0.125000 0.250000
vt 0.750000 0.250000
vt 0.875000 0.250000
vt 0.875000 0.250000
vt 0.750000 0.250000
vt 0.875000 0.250000
vt 0.875000 0.250000
vt 0.875000 0.250000
vt 0.875000 0.250000
vt 0.875000 0.250000
vt 0.750000 0.250000
vt 0.750000 0.250000
vt 0.875000 0.250000
vt 0.375000 0.375000
vt 0.375000 0.250000
vt 0.375000 0.250000
vt 0.375000 0.375000
vt 0.375000 0.250000
vt 0.375000 0.250000
vt 0.375000 0.250000
vt 0.375000 0.250000
vt 0.375000 0.250000
vt 0.375000 0.375000
vt 0.375000 0.375000
vt 0.375000 0.250000
vn 0.000000 0.000000 1.000000
vn 0.000000 0.000000 1.000000
vn 0.000000 0.000000 1.000000
vn 0.000000 0.000000 1.000000
vn 0.000854 0.997985 -0.063449
vn 0.000516 0.951460 -0.307773
vn -0.000009 0.792981 -0.609247
vn -0.000009 0.793060 -0.609144
vn 0.000000 0.000000 -1.000000
vn 0.000000 0.000000 -1.000000
vn 0.000000 0.000000 -1.000000
vn 0.000000 0.000000 -1.000000
vn 0.000000 -1.000000 0.000000
vn 0.000000 -1.000000 0.000000
vn 0.000000 -1.000000 0.000000
vn 0.000000 -1.000000 0.000000
vn 0.000014 0.000000 1.000000
vn 0.000014 0.000000 1.000000
vn 0.000016 0.000000 1.000000
vn 0.000016 0.000000 1.000000
vn -1.000000 0.000000 0.000000
vn -1.000000 0.000000 0.000000
vn -1.000000 0.000000 0.000000
vn -1.000000 0.000000 0.000000
vn 0.000000 -1.000000 0.000000
vn 0.000000 -1.000000 0.000000
vn 0.000000 -1.000000 0.000000
vn 0.000000 -1.000000 0.000000
vn 1.000000 0.000000 0.000000
vn 1.000000 0.000000 0.000000
vn 1.000000 0.000000 0.000000
vn 1.000000 0.000000 0.000000
vn 0.707443 0.706769 0.001677
vn 0.530958 0.847398 0.000789
vn 0.204169 0.978935 -0.000634
vn 0.707202 0.707010 0.001649
vn -1.000000 0.000000 0.000000
vn -1.000000 0.000000 0.000000
vn -1.000000 0.000000 0.000000
vn -1.000000 0.000000 0.000000
vn 0.001488 0.795792 0.605568
vn 0.001505 0.795731 0.605649
vn -0.700498 0.713645 -0.003754
vn -0.700303 0.713836 -0.003657
vn 0.000011 0.000000 1.000000
vn 0.000011 0.000000 1.000000
vn 0.000000 -1.000000 0.000000
vn 0.000000 -1.000000 0.000000
vn 0.000000 -1.000000 0.000000
vn 0.000000 -1.000000 0.000000
vn -1.000000 0.000000 0.000000
vn -1.000000 0.000000 0.000000
vn 0.001725 -0.517871 -0.855457
vn 0.001708 -0.518897 -0.854835
vn 0.001708 -0.518899 -0.854834
vn 0.001725 -0.517871 -0.855457
vn -1.000000 -0.000001 0.000000
vn -1.000000 -0.000001 0.000000
vn -1.000000 -0.000001 0.000000
vn -1.000000 -0.000001 0.000000
vn -0.000002 0.000000 1.000000
vn -0.000009 -0.000005 1.000000
vn -0.000009 -0.000005 1.000000
vn -0.000002 0.000000 1.000000
vn 0.798406 -0.602109 -0.003548
vn 0.799894 -0.600131 -0.003604
vn 0.799894 -0.600131 -0.003604
vn 0.798401 -0.602116 -0.003548
vn 0.002384 -0.518599 0.855014
vn 0.002417 -0.517157 0.855887
vn 0.002417 -0.517157 0.855887
vn 0.002383 -0.518603 0.855012
vn -1.000000 0.000000 0.000000
vn -1.000000 0.000000 0.000000
vn -0.801159 -0.598385 -0.008928
vn -0.797511 -0.603244 -0.008590
vn -0.797481 -0.603282 -0.008587
vn -0.801159 -0.598385 -0.008928
vn 0.000004 0.000005 1.000000
vn 0.000004 0.000005 1.000000
vn 0.000000 -0.787309 0.616558
vn 0.000000 -0.787309 0.616558
vn 0.000000 -0.787309 0.616558
vn 0.000000 -0.787309 0.616558
vn 0.000000 0.801054 -0.598593
vn 0.000000 0.801054 -0.598593
vn 0.000000 -0.616580 -0.787292
vn 0.000000 -0.616580 -0.787292
vn 0.000000 -0.787309 -0.616558
vn 0.000000 -0.787309 -0.616558
vn 0.000000 -0.787309 -0.616558
vn 0.000000 -0.787309 -0.616558
vn 0.000000 -0.616580 0.787292
vn 0.000000 -0.616580 0.787292
vn 0.000000 0.801054 0.598593
vn 0.000000 0.801054 0.598593
vn -0.718085 -0.695956 0.000010
vn -0.718085 -0.695956 0.000010
vn -0.718085 -0.695956 0.000010
vn -0.718085 -0.695956 0.000010
vn 0.695956 -0.718084 -0.000012
vn 0.695956 -0.718084 -0.000012
vn 0.692919 0.721016 -0.000008
vn 0.692919 0.721016 -0.000008
vn 0.718079 -0.695961 -0.000003
vn 0.718079 -0.695961 -0.000003
vn 0.718079 -0.695961 -0.000003
vn 0.718079 -0.695961 -0.000003
vn -0.692913 0.721021 0.000002
vn -0.692913 0.721021 0.000002
vn -0.695956 -0.718084 0.000007
vn -0.695956 -0.718084 0.000007
vn 0.000000 0.000000 1.000000
vn 0.000000 0.000000 1.000000
vn 0.000000 0.000000 1.000000
vn 0.000000 0.000000 1.000000
vn 0.000000 1.000000 0.000000
vn 0.000000 1.000000 0.000000
vn 0.000000 1.000000 0.000000
vn 0.000000 1.000000 0.000000
vn 0.000000 0.000000 -1.000000
vn 0.000000 0.000000 -1.000000
vn 0.000000 0.000000 -1.000000
vn 0.000000 0.000000 -1.000000
vn 0.000000 -1.000000 0.000000
vn 0.000000 -1.000000 0.000000
vn 0.000000 -1.000000 0.000000
vn 0.000000 -1.000000 0.000000
vn 1.000000 0.000000 0.000000
vn 1.000000 0.000000 0.000000
vn 1.000000 0.000000 0.000000
vn 1.000000 0.000000 0.000000
vn -1.000000 0.000000 0.000000
vn -1.000000 0.000000 0.000000
vn -1.000000 0.000000 0.000000
vn -1.000000 0.000000 0.000000
g HouseAngled PROPS
usemtl lambert3SG
f 1/1/1 2/2/2 4/4/3 3/3/4
f 18/31/5 19/21/6 20/29/7 21/30/8
f 5/5/9 6/6/10 8/8/11 7/7/12
f 7/7/13 8/8/14 16/25/15 17/28/16
f 14/23/17 15/24/18 9/16/19 11/17/20
f 7/13/21 17/27/22 13/19/23 5/14/24
f 15/24/25 16/26/26 8/11/27 9/16/28
f 8/11/29 6/12/30 11/17/31 9/16/32
f 20/34/33 19/22/34 22/32/35 23/33/36
f 4/4/37 2/2/38 10/15/39 12/18/40
f 24/35/41 25/36/42 19/21/6 18/31/5
f 22/32/35 19/22/34 25/36/43 26/37/44
f 10/15/45 15/24/18 14/23/17 12/18/46
f 2/2/47 16/26/26 15/24/25 10/15/48
f 17/28/16 16/25/15 2/10/49 1/9/50
f 13/19/23 17/27/22 1/1/51 3/3/52
f 6/6/53 5/5/54 21/30/55 20/29/56
f 28/38/57 27/39/58 29/40/59 30/41/60
f 33/42/61 34/43/62 35/44/63 36/45/64
f 11/17/65 6/12/66 20/34/67 23/33/68
f 3/3/69 4/4/70 25/36/71 24/35/72
f 27/39/58 31/46/73 32/47/74 29/40/59
f 4/4/75 12/18/76 26/37/77 25/36/78
f 37/48/79 33/42/61 36/45/64 38/49/80
f 5/5/81 13/20/82 27/39/83 28/38/84
f 18/31/5 21/30/8 30/41/85 29/40/86
f 21/30/55 5/5/54 28/38/87 30/41/88
f 13/64/89 3/65/90 31/66/91 27/67/92
f 3/68/69 24/69/72 32/70/93 31/71/94
f 24/72/41 18/73/5 29/74/95 32/75/96
f 14/76/97 11/77/98 34/78/99 33/79/100
f 11/80/65 23/81/68 35/82/101 34/83/102
f 23/84/36 22/85/35 36/86/103 35/87/104
f 12/18/105 14/23/106 33/42/107 37/48/108
f 22/32/35 26/37/44 38/49/109 36/45/110
f 26/37/77 12/18/76 37/48/111 38/49/112
f 39/50/113 40/51/114 42/52/115 41/53/116
f 41/53/117 42/52/118 44/54/119 43/55/120
f 43/55/121 44/54/122 46/56/123 45/57/124
f 45/57/125 46/56/126 40/58/127 39/59/128
f 40/51/129 46/60/130 44/61/131 42/52/132
f 45/62/133 39/50/134 41/53/135 43/63/136
