# This file uses centimeters as units for non-parametric coordinates.

mtllib LightPole.mtl
g default
v 0.175124 -0.166491 -0.175126
v 0.000000 -0.166491 -0.247663
v -0.175124 -0.166491 -0.175126
v -0.247663 -0.166491 -0.000001
v -0.175124 -0.166491 0.175124
v 0.000000 -0.166491 0.247660
v 0.175124 -0.166491 0.175124
v 0.247663 -0.166491 -0.000001
v 0.175124 1.833509 -0.175126
v 0.000000 1.833509 -0.247663
v -0.175124 1.833509 -0.175126
v -0.247663 1.833509 -0.000001
v -0.175124 1.833509 0.175124
v 0.000000 1.833509 0.247660
v 0.175124 1.833509 0.175124
v 0.247663 1.833509 -0.000001
v 0.000000 -0.166491 -0.000001
v 0.000000 1.833509 -0.000001
v 0.175124 1.790249 -0.175126
v 0.000000 1.790249 -0.247663
v -0.175124 1.790249 -0.175126
v -0.247663 1.790249 -0.000001
v -0.175124 1.790249 0.175124
v 0.000000 1.790249 0.247660
v 0.175124 1.790249 0.175124
v 0.247663 1.790249 -0.000001
v 0.175124 1.388497 -0.175126
v 0.000000 1.388497 -0.247663
v -0.175124 1.388497 -0.175126
v -0.247663 1.388497 -0.000001
v -0.175124 1.388497 0.175124
v 0.000000 1.388497 0.247660
v 0.175124 1.388497 0.175124
v 0.247663 1.388497 -0.000001
v 0.175124 1.213139 -0.175126
v 0.000000 1.213139 -0.247663
v -0.175124 1.213139 -0.175126
v -0.247663 1.213139 -0.000001
v -0.175124 1.213139 0.175124
v 0.000000 1.213139 0.247660
v 0.175124 1.213139 0.175124
v 0.247663 1.213139 -0.000001
v 0.175124 0.717531 -0.175126
v 0.000000 0.717531 -0.247663
v -0.175124 0.717531 -0.175126
v -0.247663 0.717531 -0.000001
v -0.175124 0.717531 0.175124
v 0.000000 0.717531 0.247660
v 0.175124 0.717531 0.175124
v 0.247663 0.717531 -0.000001
vt 0.610485 0.045765
vt 0.500000 0.000000
vt 0.389515 0.045765
vt 0.343750 0.156250
vt 0.389515 0.266735
vt 0.500000 0.312500
vt 0.610485 0.266735
vt 0.656250 0.156250
vt 0.375000 0.312500
vt 0.406250 0.312500
vt 0.437500 0.312500
vt 0.468750 0.312500
vt 0.500000 0.312500
vt 0.531250 0.312500
vt 0.562500 0.312500
vt 0.593750 0.312500
vt 0.625000 0.312500
vt 0.375000 0.688440
vt 0.406250 0.688440
vt 0.437500 0.688440
vt 0.468750 0.688440
vt 0.500000 0.688440
vt 0.531250 0.688440
vt 0.562500 0.688440
vt 0.593750 0.688440
vt 0.625000 0.688440
vt 0.610485 0.733265
vt 0.500000 0.687500
vt 0.389515 0.733265
vt 0.343750 0.843750
vt 0.389515 0.954235
vt 0.500000 1.000000
vt 0.610485 0.954235
vt 0.656250 0.843750
vt 0.500000 0.150000
vt 0.500000 0.837500
vt 0.625000 0.680308
vt 0.375000 0.680308
vt 0.406250 0.680308
vt 0.437500 0.680308
vt 0.468750 0.680308
vt 0.500000 0.680308
vt 0.531250 0.680308
vt 0.562500 0.680308
vt 0.593750 0.680308
vt 0.625000 0.604791
vt 0.375000 0.604791
vt 0.406250 0.604791
vt 0.437500 0.604791
vt 0.468750 0.604791
vt 0.500000 0.604791
vt 0.531250 0.604791
vt 0.562500 0.604791
vt 0.593750 0.604791
vt 0.625000 0.571829
vt 0.375000 0.571829
vt 0.406250 0.571829
vt 0.437500 0.571829
vt 0.468750 0.571829
vt 0.500000 0.571829
vt 0.531250 0.571829
vt 0.562500 0.571829
vt 0.593750 0.571829
vt 0.625000 0.478669
vt 0.375000 0.478669
vt 0.406250 0.478669
vt 0.437500 0.478669
vt 0.468750 0.478669
vt 0.500000 0.478669
vt 0.531250 0.478669
vt 0.562500 0.478669
vt 0.593750 0.478669
vn 0.382671 0.000000 -0.923885
vn 0.382671 0.000000 -0.923885
vn 0.382675 0.000000 -0.923883
vn 0.382675 0.000000 -0.923883
vn -0.382671 0.000000 -0.923885
vn -0.382671 0.000000 -0.923885
vn -0.382675 0.000000 -0.923883
vn -0.382675 0.000000 -0.923883
vn -0.923881 0.000000 -0.382679
vn -0.923881 0.000000 -0.382679
vn -0.923880 0.000000 -0.382683
vn -0.923880 0.000000 -0.382683
vn -0.923880 0.000000 0.382682
vn -0.923880 0.000000 0.382682
vn -0.923882 0.000000 0.382678
vn -0.923882 0.000000 0.382678
vn -0.382679 0.000000 0.923881
vn -0.382679 0.000000 0.923881
vn -0.382663 0.000000 0.923888
vn -0.382663 0.000000 0.923888
vn 0.382679 0.000000 0.923881
vn 0.382679 0.000000 0.923881
vn 0.382663 0.000000 0.923888
vn 0.382663 0.000000 0.923888
vn 0.923880 0.000000 0.382683
vn 0.923880 0.000000 0.382683
vn 0.923882 0.000000 0.382678
vn 0.923882 0.000000 0.382678
vn 0.923881 0.000000 -0.382679
vn 0.923881 0.000000 -0.382679
vn 0.923880 0.000000 -0.382683
vn 0.923880 0.000000 -0.382683
vn 0.000000 -1.000000 0.000000
vn 0.000000 -1.000000 0.000000
vn 0.000000 -1.000000 0.000000
vn 0.000000 -1.000000 0.000000
vn 0.000000 -1.000000 0.000000
vn 0.000000 -1.000000 0.000000
vn 0.000000 -1.000000 0.000000
vn 0.000000 -1.000000 0.000000
vn 0.000000 -1.000000 0.000000
vn 0.000000 1.000000 0.000000
vn 0.000000 1.000000 0.000000
vn 0.000000 1.000000 0.000000
vn 0.000000 1.000000 0.000000
vn 0.000000 1.000000 0.000000
vn 0.000000 1.000000 0.000000
vn 0.000000 1.000000 0.000000
vn 0.000000 1.000000 0.000000
vn 0.000000 1.000000 0.000000
vn 0.382670 0.000000 -0.923885
vn 0.382670 0.000000 -0.923885
vn -0.382670 0.000000 -0.923885
vn -0.382670 0.000000 -0.923885
vn -0.923882 0.000000 -0.382678
vn -0.923882 0.000000 -0.382678
vn -0.923880 0.000000 0.382683
vn -0.923880 0.000000 0.382683
vn -0.382681 0.000000 0.923881
vn -0.382681 0.000000 0.923881
vn 0.382681 0.000000 0.923881
vn 0.382681 0.000000 0.923881
vn 0.923880 0.000000 0.382683
vn 0.923880 0.000000 0.382683
vn 0.923882 0.000000 -0.382679
vn 0.923882 0.000000 -0.382679
vn 0.382672 0.000000 -0.923884
vn 0.382672 0.000000 -0.923884
vn -0.382672 0.000000 -0.923884
vn -0.382672 0.000000 -0.923884
vn -0.923881 0.000000 -0.382679
vn -0.923881 0.000000 -0.382679
vn -0.923881 0.000000 0.382680
vn -0.923881 0.000000 0.382680
vn -0.382675 0.000000 0.923883
vn -0.382675 0.000000 0.923883
vn 0.382675 0.000000 0.923883
vn 0.382675 0.000000 0.923883
vn 0.923881 0.000000 0.382681
vn 0.923881 0.000000 0.382681
vn 0.923881 0.000000 -0.382679
vn 0.923881 0.000000 -0.382679
vn 0.382677 0.000000 -0.923882
vn 0.382677 0.000000 -0.923882
vn -0.382677 0.000000 -0.923882
vn -0.382677 0.000000 -0.923882
vn -0.923881 0.000000 -0.382681
vn -0.923881 0.000000 -0.382681
vn -0.923881 0.000000 0.382681
vn -0.923881 0.000000 0.382681
vn -0.382677 0.000000 0.923882
vn -0.382677 0.000000 0.923882
vn 0.382677 0.000000 0.923882
vn 0.382677 0.000000 0.923882
vn 0.923881 0.000000 0.382681
vn 0.923881 0.000000 0.382681
vn 0.923881 0.000000 -0.382681
vn 0.923881 0.000000 -0.382681
vn 0.382680 0.000000 -0.923881
vn 0.382680 0.000000 -0.923881
vn -0.382680 0.000000 -0.923881
vn -0.382680 0.000000 -0.923881
vn -0.923880 0.000000 -0.382682
vn -0.923880 0.000000 -0.382682
vn -0.923880 0.000000 0.382682
vn -0.923880 0.000000 0.382682
vn -0.382680 0.000000 0.923881
vn -0.382680 0.000000 0.923881
vn 0.382680 0.000000 0.923881
vn 0.382680 0.000000 0.923881
vn 0.923880 0.000000 0.382682
vn 0.923880 0.000000 0.382682
vn 0.923880 0.000000 -0.382682
vn 0.923880 0.000000 -0.382682
g LightPoleFuturistic PROPS
usemtl lambert3SG
f 19/38/1 20/39/2 10/19/3 9/18/4
f 20/39/5 21/40/6 11/20/7 10/19/8
f 21/40/9 22/41/10 12/21/11 11/20/12
f 22/41/13 23/42/14 13/22/15 12/21/16
f 23/42/17 24/43/18 14/23/19 13/22/20
f 24/43/21 25/44/22 15/24/23 14/23/24
f 25/44/25 26/45/26 16/25/27 15/24/28
f 26/45/29 19/37/30 9/26/31 16/25/32
f 2/2/33 1/1/34 17/35/35
f 3/3/36 2/2/33 17/35/35
f 4/4/37 3/3/36 17/35/35
f 5/5/38 4/4/37 17/35/35
f 6/6/39 5/5/38 17/35/35
f 7/7/40 6/6/39 17/35/35
f 8/8/41 7/7/40 17/35/35
f 1/1/34 8/8/41 17/35/35
f 9/33/42 10/32/43 18/36/44
f 10/32/43 11/31/45 18/36/44
f 11/31/45 12/30/46 18/36/44
f 12/30/46 13/29/47 18/36/44
f 13/29/47 14/28/48 18/36/44
f 14/28/48 15/27/49 18/36/44
f 15/27/49 16/34/50 18/36/44
f 16/34/50 9/33/42 18/36/44
usemtl blinn1SG
f 27/47/51 28/48/52 20/39/2 19/38/1
f 28/48/53 29/49/54 21/40/6 20/39/5
f 29/49/55 30/50/56 22/41/10 21/40/9
f 30/50/57 31/51/58 23/42/14 22/41/13
f 31/51/59 32/52/60 24/43/18 23/42/17
f 32/52/61 33/53/62 25/44/22 24/43/21
f 33/53/63 34/54/64 26/45/26 25/44/25
f 34/54/65 27/46/66 19/37/30 26/45/29
usemtl lambert3SG
f 35/56/67 36/57/68 28/48/52 27/47/51
f 36/57/69 37/58/70 29/49/54 28/48/53
f 37/58/71 38/59/72 30/50/56 29/49/55
f 38/59/73 39/60/74 31/51/58 30/50/57
f 39/60/75 40/61/76 32/52/60 31/51/59
f 40/61/77 41/62/78 33/53/62 32/52/61
f 41/62/79 42/63/80 34/54/64 33/53/63
f 42/63/81 35/55/82 27/46/66 34/54/65
usemtl blinn1SG
f 43/65/83 44/66/84 36/57/68 35/56/67
f 44/66/85 45/67/86 37/58/70 36/57/69
f 45/67/87 46/68/88 38/59/72 37/58/71
f 46/68/89 47/69/90 39/60/74 38/59/73
f 47/69/91 48/70/92 40/61/76 39/60/75
f 48/70/93 49/71/94 41/62/78 40/61/77
f 49/71/95 50/72/96 42/63/80 41/62/79
f 50/72/97 43/64/98 35/55/82 42/63/81
usemtl lambert3SG
f 1/9/99 2/10/100 44/66/84 43/65/83
f 2/10/101 3/11/102 45/67/86 44/66/85
f 3/11/103 4/12/104 46/68/88 45/67/87
f 4/12/105 5/13/106 47/69/90 46/68/89
f 5/13/107 6/14/108 48/70/92 47/69/91
f 6/14/109 7/15/110 49/71/94 48/70/93
f 7/15/111 8/16/112 50/72/96 49/71/95
f 8/16/113 1/17/114 43/64/98 50/72/97
