# This file uses centimeters as units for non-parametric coordinates.

mtllib Spruce.mtl
g default
v 0.379769 0.697117 -1.691514
v -1.608721 0.697117 -1.045415
v -1.608719 0.697117 1.045413
v 0.379769 0.697117 1.691512
v 1.608721 0.697117 -0.000001
v 0.000000 6.762046 -0.000001
v -0.422191 4.766739 -0.274362
v -0.382775 4.700269 -0.248742
v -0.422190 4.766739 0.274359
v -0.382774 4.700269 0.248740
v 0.099663 4.766914 0.443881
v 0.090369 4.700094 0.402507
v 0.422139 4.767018 -0.000001
v 0.382827 4.699989 -0.000001
v 0.099663 4.766914 -0.443883
v 0.090369 4.700094 -0.402509
v 0.168138 2.688565 -0.748914
v 0.191677 2.755386 -0.853738
v -0.811985 2.755211 -0.527662
v -0.712235 2.688740 -0.462838
v -0.811983 2.755211 0.527659
v -0.712234 2.688740 0.462836
v 0.191677 2.755386 0.853736
v 0.168138 2.688565 0.748912
v 0.811933 2.755490 -0.000001
v 0.712271 2.688462 -0.000001
v -0.630260 3.337704 0.409568
v -0.630261 3.337704 -0.409570
v 0.148779 3.337793 -0.662679
v 0.630231 3.337845 -0.000001
v 0.148779 3.337793 0.662677
v -1.109730 1.330887 -0.721147
v 0.261976 1.330817 -1.166856
v 1.109752 1.330775 -0.000001
v 0.261976 1.330817 1.166854
v -1.109728 1.330887 0.721144
v 0.293837 5.126123 -0.000001
v 0.069370 5.126037 -0.308980
v -0.293880 5.125894 -0.190976
v -0.293879 5.125894 0.190974
v 0.069370 5.126037 0.308978
vt 0.577254 0.012236
vt 0.297746 0.103054
vt 0.297746 0.396946
vt 0.577254 0.487764
vt 0.750000 0.250000
vt 0.378780 0.757561
vt 0.375000 0.750000
vt 0.626862 0.746276
vt 0.701472 0.597056
vt 0.302252 0.604503
vt 0.300390 0.600780
vt 0.427262 0.757538
vt 0.475754 0.757538
vt 0.524244 0.757561
vt 0.572728 0.757573
vt 0.621220 0.757560
vt 0.500000 1.000000
vt 0.460449 0.604492
vt 0.423886 0.746287
vt 0.539550 0.604503
vt 0.474629 0.746287
vt 0.618647 0.604510
vt 0.525372 0.746276
vt 0.697748 0.604503
vt 0.576119 0.746270
vt 0.381348 0.604493
vt 0.373138 0.746276
vt 0.250000 0.500000
vt 0.350000 0.500000
vt 0.298528 0.597056
vt 0.450000 0.500000
vt 0.379120 0.597067
vt 0.550000 0.500000
vt 0.459707 0.597067
vt 0.650000 0.500000
vt 0.540294 0.597056
vt 0.750000 0.500000
vt 0.620885 0.597049
vt 0.463951 0.639506
vt 0.391852 0.639506
vt 0.680245 0.639511
vt 0.319755 0.639511
vt 0.608146 0.639514
vt 0.536049 0.639511
vt 0.361697 0.538992
vt 0.269494 0.538987
vt 0.730506 0.538987
vt 0.638305 0.538985
vt 0.546101 0.538987
vt 0.453899 0.538992
vt 0.536364 0.878787
vt 0.439390 0.878780
vt 0.560610 0.878780
vt 0.463631 0.878769
vt 0.487877 0.878769
vt 0.512122 0.878780
vn 0.000000 -1.000000 0.000000
vn 0.000000 -1.000000 0.000000
vn 0.000000 -1.000000 0.000000
vn 0.000000 -1.000000 0.000000
vn 0.000000 -1.000000 0.000000
vn -0.979776 0.200098 0.000001
vn -0.989028 0.147727 0.000001
vn -0.989028 0.147727 0.000001
vn -0.979776 0.200098 0.000001
vn -0.306116 0.136694 -0.942129
vn -0.303554 0.187844 -0.934114
vn -0.303734 0.184760 -0.934671
vn -0.306081 0.137526 -0.942020
vn -0.303554 0.187844 0.934114
vn -0.306117 0.136694 0.942129
vn -0.306081 0.137525 0.942020
vn -0.303734 0.184760 0.934671
vn 0.797983 0.164518 0.579790
vn 0.803213 0.119593 0.583563
vn 0.803168 0.120057 0.583530
vn 0.798220 0.162757 0.579962
vn 0.798220 0.162757 -0.579962
vn 0.803165 0.120058 -0.583534
vn 0.803210 0.119594 -0.583567
vn 0.797983 0.164518 -0.579790
vn 0.797891 0.165299 -0.579695
vn 0.801682 0.134311 -0.582466
vn 0.802349 0.128082 -0.582950
vn 0.797710 0.166628 -0.579563
vn -0.305969 0.140343 -0.941641
vn -0.303272 0.191730 -0.933416
vn -0.303410 0.189425 -0.933842
vn -0.305487 0.150938 -0.940157
vn -0.988010 0.154391 0.000001
vn -0.978640 0.205584 0.000001
vn -0.978640 0.205584 0.000001
vn -0.988010 0.154391 0.000001
vn -0.305487 0.150937 0.940157
vn -0.303410 0.189425 0.933842
vn -0.303272 0.191729 0.933416
vn -0.305969 0.140343 0.941641
vn 0.801681 0.134311 0.582467
vn 0.797891 0.165299 0.579695
vn 0.797710 0.166628 0.579563
vn 0.802348 0.128082 0.582952
vn -0.301144 0.224681 -0.926731
vn -0.300984 0.226917 -0.926238
vn -0.304836 0.164252 -0.938134
vn -0.970146 0.242521 0.000001
vn -0.970146 0.242521 0.000001
vn -0.984248 0.176791 0.000001
vn -0.300991 0.226916 0.926236
vn -0.301151 0.224681 0.926729
vn -0.304848 0.164252 0.938131
vn 0.792845 0.198938 0.576038
vn 0.793048 0.197701 0.576185
vn 0.800615 0.143802 0.581667
vn 0.793048 0.197701 -0.576185
vn 0.792845 0.198937 -0.576038
vn 0.800615 0.143802 -0.581667
vn -0.973060 0.230550 0.000001
vn -0.973060 0.230550 0.000001
vn -0.301879 0.213767 0.929071
vn -0.301772 0.215350 0.928740
vn 0.794609 0.187878 0.577320
vn 0.794474 0.188751 0.577222
vn 0.794472 0.188751 -0.577223
vn 0.794608 0.187878 -0.577321
vn -0.301772 0.215350 -0.928740
vn -0.301879 0.213767 -0.929071
vn -0.249588 0.589578 -0.768182
vn -0.249588 0.589578 -0.768182
vn -0.275925 0.450165 -0.849245
vn -0.277127 0.442366 -0.852944
vn -0.785699 0.618610 0.000001
vn -0.785699 0.618610 0.000001
vn -0.880887 0.473327 0.000001
vn -0.880887 0.473327 0.000001
vn -0.249588 0.589578 0.768182
vn -0.249588 0.589578 0.768182
vn -0.277127 0.442366 0.852944
vn -0.275925 0.450165 0.849245
vn 0.682331 0.537281 0.495735
vn 0.682331 0.537281 0.495735
vn 0.742362 0.397491 0.539351
vn 0.740740 0.402089 0.538172
vn 0.682331 0.537281 -0.495735
vn 0.682331 0.537281 -0.495735
vn 0.740740 0.402089 -0.538172
vn 0.742362 0.397491 -0.539351
g Spruce PROPS
usemtl lambert3SG
f 1/1/1 5/5/2 4/4/3 3/3/4 2/2/5
f 7/12/6 8/19/7 10/21/8 9/13/9
f 8/19/10 7/12/11 15/6/12 16/7/13
f 9/13/14 10/21/15 12/23/16 11/14/17
f 11/14/18 12/23/19 14/25/20 13/15/21
f 13/15/22 14/25/23 16/8/24 15/16/25
f 17/9/26 18/24/27 25/22/28 26/38/29
f 18/10/30 17/11/31 20/32/32 19/26/33
f 19/26/34 20/32/35 22/34/36 21/18/37
f 21/18/38 22/34/39 24/36/40 23/20/41
f 23/20/42 24/36/43 26/38/44 25/22/45
f 38/52/46 39/54/47 6/17/48
f 39/54/49 40/55/50 6/17/51
f 40/55/52 41/56/53 6/17/54
f 41/56/55 37/51/56 6/17/57
f 37/51/58 38/53/59 6/17/60
f 19/26/34 21/18/37 27/39/61 28/40/62
f 21/18/38 23/20/41 31/44/63 27/39/64
f 23/20/42 25/22/45 30/43/65 31/44/66
f 25/22/28 18/24/27 29/41/67 30/43/68
f 18/10/30 19/26/33 28/40/69 29/42/70
f 1/28/71 2/29/72 32/45/73 33/46/74
f 2/29/75 3/31/76 36/50/77 32/45/78
f 3/31/79 4/33/80 35/49/81 36/50/82
f 4/33/83 5/35/84 34/48/85 35/49/86
f 5/35/87 1/37/88 33/47/89 34/48/90
f 28/40/62 27/39/61 10/21/8 8/19/7
f 29/42/70 28/40/69 8/19/10 16/27/13
f 30/43/68 29/41/67 16/8/24 14/25/23
f 31/44/66 30/43/65 14/25/20 12/23/19
f 27/39/64 31/44/63 12/23/16 10/21/15
f 33/46/74 32/45/73 20/32/32 17/30/31
f 34/48/90 33/47/89 17/9/26 26/38/29
f 35/49/86 34/48/85 26/38/44 24/36/43
f 36/50/82 35/49/81 24/36/40 22/34/39
f 32/45/78 36/50/77 22/34/36 20/32/35
f 13/15/22 15/16/25 38/53/59 37/51/58
f 15/6/12 7/12/11 39/54/47 38/52/46
f 7/12/6 9/13/9 40/55/50 39/54/49
f 9/13/14 11/14/17 41/56/53 40/55/52
f 11/14/18 13/15/21 37/51/56 41/56/55
