# This file uses centimeters as units for non-parametric coordinates.

v -13.154798 0.000000 -42.942081
v -4.868666 -0.000000 -42.955666
v -13.488094 0.000000 -50.712589
v -4.868666 0.000000 -50.712589
v 10.043866 0.000000 -43.052261
v 9.491036 0.000000 -50.712585
v 23.588198 0.000000 -43.052261
v 23.256498 0.000000 -50.712589
v 31.548946 0.000000 -42.720566
v 31.347742 0.000000 -50.712585
v 24.859707 0.000000 -35.865475
v 32.931023 0.000000 -37.358112
v 35.805737 0.000000 -33.764721
v 29.337627 0.000000 -28.789251
v 37.906490 0.000000 -24.200764
v 40.670639 0.000000 -31.166420
v 43.379505 0.000000 -22.929255
v 43.103092 0.000000 -30.834723
v 37.935413 0.000000 -48.879044
v 35.087059 0.000000 -41.504337
v 45.190773 0.000000 -44.122353
v 38.625168 0.000000 -38.795471
v 41.389317 0.000000 -34.593964
v 49.515919 0.000000 -37.413399
v 51.054050 0.000000 -30.764011
v 51.054050 0.000000 -23.150387
v 43.341942 0.000000 -9.747807
v 51.054054 0.000000 -9.336020
v 43.384895 -0.000000 12.620315
v 51.054062 0.000000 13.595860
v 51.054058 0.000000 10.825620
v 43.374401 -0.000000 10.615405
v 41.449802 0.000000 -0.716493
v 51.054058 0.000000 0.393140
v 39.684124 0.000000 -13.271379
v 36.105495 0.000000 -5.453454
v 30.930248 0.000000 -15.308445
v 29.829132 0.000000 -7.215239
v 23.387602 0.000000 -8.041077
v 24.984221 0.000000 -16.464617
v 21.350536 0.000000 -17.896069
v 17.441574 0.000000 -10.463533
v 18.322466 0.000000 -20.428637
v 12.596660 0.000000 -14.482608
v 16.670792 0.000000 -23.731985
v 9.018032 0.000000 -20.648859
v 8.082083 0.000000 -25.989273
v 15.734842 0.000000 -26.264553
v 15.184284 0.000000 -31.935303
v 7.531525 0.000000 -30.889242
v 14.028112 0.000000 -37.495941
v 6.155129 0.000000 -35.183598
v 12.101158 0.000000 -41.019512
v 3.182115 0.000000 -39.202671
v 42.012035 -0.000000 23.942799
v 51.054058 -0.000000 24.062759
v 37.102417 0.000000 18.325672
v 40.094467 0.000000 9.795144
v 32.264206 0.000000 15.886203
v 32.455189 0.000000 7.535192
v -7.183546 0.000000 7.535189
v -7.183546 -0.000000 15.886205
v 51.054058 0.000000 30.293879
v 43.150181 -0.000000 30.166557
v 41.367683 -0.000000 35.832355
v 48.943302 0.000000 39.142712
v 36.274826 -0.000000 40.797890
v 41.940628 -0.000000 47.609577
v 30.099745 -0.000000 42.764114
v 31.494740 -0.000000 51.016720
v 6.481638 -0.000000 42.764111
v 6.163335 0.000000 51.016720
v 9.855653 -0.000000 34.304501
v 25.961802 -0.000000 34.304501
v -10.929323 -0.000000 42.764114
v -10.452098 0.000000 51.016720
v -32.270233 0.000000 42.764118
v -32.604797 0.000000 51.016720
v 1.487952 0.000000 51.016720
v 0.906273 -0.000000 41.658455
v -14.092266 0.000000 38.066925
v -5.505129 0.000000 35.724979
v -15.820847 0.000000 30.873802
v -7.183546 0.000000 30.483479
v -15.820843 0.000000 15.886196
v -15.820848 0.000000 7.535190
v -31.534695 -0.000000 7.535192
v -30.708935 0.000000 15.886198
v -37.929977 -0.000000 4.956358
v -38.889153 -0.000000 19.186407
v -41.173893 -0.000000 11.280396
v -42.836807 0.000000 13.304978
v -42.836803 -0.000000 30.160976
v -42.836803 0.000000 -4.791702
v -42.836807 0.000000 10.237744
v -50.926373 -0.000000 13.489012
v -50.926376 -0.000000 30.535839
v -50.926373 -0.000000 10.115054
v -50.926373 0.000000 -4.669013
v -37.258553 -0.000000 40.965267
v -41.668224 0.000000 47.580093
v -41.535862 -0.000000 35.458935
v -49.010899 -0.000000 39.209141
v -7.183546 0.000000 -30.556240
v -15.820846 0.000000 -29.681391
v -22.755049 0.000000 -50.712589
v -22.194675 0.000000 -40.792576
v -9.917480 0.000000 -39.718487
v -17.986938 0.000000 -36.630531
v -8.041584 0.000000 -35.133827
v -16.259607 0.000000 -33.147293
v -29.143467 0.000000 -50.712589
v -28.926798 0.000000 -42.956196
v -42.836803 0.000000 -30.354824
v -41.070198 0.000000 -35.410938
v -48.165432 0.000000 -41.431145
v -50.926380 0.000000 -30.358269
v -38.368824 0.000000 -49.325768
v -36.191486 0.000000 -40.719242
vt 0.372912 0.913112
vt 0.452577 0.913243
vt 0.452577 0.987820
vt 0.369708 0.987820
vt 0.595951 0.914171
vt 0.590636 0.987820
vt 0.726170 0.914171
vt 0.722981 0.987820
vt 0.800772 0.987820
vt 0.802707 0.910982
vt 0.738394 0.845076
vt 0.815994 0.859426
vt 0.781447 0.777043
vt 0.843633 0.824878
vt 0.863830 0.732928
vt 0.890405 0.799898
vt 0.916449 0.720703
vt 0.913792 0.796709
vt 0.836723 0.899289
vt 0.864108 0.970192
vt 0.870739 0.873245
vt 0.933863 0.924460
vt 0.975446 0.859958
vt 0.897315 0.832851
vt 0.990234 0.796029
vt 0.990234 0.722829
vt 0.990234 0.590014
vt 0.916088 0.593973
vt 0.990234 0.369540
vt 0.990234 0.396174
vt 0.916400 0.398195
vt 0.916501 0.378920
vt 0.897896 0.507143
vt 0.990234 0.496475
vt 0.846515 0.552686
vt 0.880921 0.627850
vt 0.796758 0.647434
vt 0.786172 0.569624
vt 0.739592 0.658550
vt 0.724241 0.577564
vt 0.704656 0.672313
vt 0.667075 0.600854
vt 0.675544 0.696661
vt 0.620494 0.639495
vt 0.659664 0.728421
vt 0.586088 0.698779
vt 0.650665 0.752770
vt 0.577090 0.750123
vt 0.645372 0.807290
vt 0.571796 0.797233
vt 0.634256 0.860751
vt 0.558563 0.838520
vt 0.615730 0.894628
vt 0.529980 0.877160
vt 0.903302 0.270062
vt 0.990234 0.268909
vt 0.884866 0.406081
vt 0.856099 0.324067
vt 0.811420 0.427809
vt 0.809583 0.347520
vt 0.430322 0.347520
vt 0.430322 0.427809
vt 0.914244 0.210225
vt 0.990234 0.209001
vt 0.897107 0.155752
vt 0.969941 0.123926
vt 0.848143 0.108012
vt 0.902615 0.042523
vt 0.788774 0.089109
vt 0.802185 0.009766
vt 0.558642 0.009766
vt 0.561703 0.089109
vt 0.748990 0.170442
vt 0.594141 0.170442
vt 0.398897 0.009766
vt 0.513692 0.009766
vt 0.508099 0.099739
vt 0.394309 0.089109
vt 0.185915 0.009766
vt 0.189131 0.089108
vt 0.446458 0.156785
vt 0.363899 0.134269
vt 0.430322 0.207178
vt 0.347280 0.203425
vt 0.347280 0.347520
vt 0.347280 0.427809
vt 0.196203 0.427809
vt 0.204142 0.347520
vt 0.134717 0.452603
vt 0.103529 0.391802
vt 0.125495 0.315791
vt 0.087541 0.372337
vt 0.087541 0.210279
vt 0.087541 0.546324
vt 0.087541 0.401826
vt 0.009766 0.370568
vt 0.009766 0.206675
vt 0.009766 0.403006
vt 0.009766 0.545144
vt 0.141172 0.106403
vt 0.098776 0.042806
vt 0.100049 0.159343
vt 0.028182 0.123287
vt 0.430322 0.794031
vt 0.347280 0.785620
vt 0.286000 0.892446
vt 0.280613 0.987820
vt 0.422072 0.838041
vt 0.343062 0.818942
vt 0.326455 0.852431
vt 0.404037 0.882120
vt 0.219193 0.987820
vt 0.221276 0.913248
vt 0.009766 0.792128
vt 0.087541 0.792095
vt 0.104526 0.840706
vt 0.036310 0.898585
vt 0.151431 0.891741
vt 0.130498 0.974487
vn 0.000000 1.000000 0.000000
vn 0.000000 1.000000 0.000000
vn 0.000000 1.000000 0.000000
vn 0.000000 1.000000 0.000000
vn -0.000000 1.000000 0.000000
vn -0.000000 1.000000 0.000000
vn -0.000000 1.000000 0.000000
vn -0.000000 1.000000 0.000000
vn 0.000000 1.000000 0.000000
vn 0.000000 1.000000 0.000000
vn 0.000000 1.000000 0.000000
vn 0.000000 1.000000 0.000000
vn -0.000000 1.000000 0.000000
vn -0.000000 1.000000 0.000000
vn -0.000000 1.000000 0.000000
vn -0.000000 1.000000 0.000000
vn 0.000000 1.000000 0.000000
vn 0.000000 1.000000 0.000000
vn 0.000000 1.000000 0.000000
vn 0.000000 1.000000 0.000000
vn 0.000000 1.000000 0.000000
vn 0.000000 1.000000 0.000000
vn 0.000000 1.000000 0.000000
vn 0.000000 1.000000 0.000000
vn 0.000000 1.000000 0.000000
vn 0.000000 1.000000 0.000000
vn 0.000000 1.000000 0.000000
vn 0.000000 1.000000 0.000000
vn 0.000000 1.000000 0.000000
vn 0.000000 1.000000 0.000000
vn 0.000000 1.000000 0.000000
vn 0.000000 1.000000 0.000000
vn -0.000000 1.000000 0.000000
vn -0.000000 1.000000 0.000000
vn -0.000000 1.000000 0.000000
vn -0.000000 1.000000 0.000000
vn -0.000000 1.000000 0.000000
vn -0.000000 1.000000 0.000000
vn -0.000000 1.000000 0.000000
vn -0.000000 1.000000 0.000000
vn -0.000000 1.000000 0.000000
vn -0.000000 1.000000 0.000000
vn -0.000000 1.000000 0.000000
vn -0.000000 1.000000 0.000000
vn -0.000000 1.000000 -0.000000
vn -0.000000 1.000000 -0.000000
vn -0.000000 1.000000 -0.000000
vn -0.000000 1.000000 -0.000000
vn -0.000000 1.000000 0.000000
vn -0.000000 1.000000 0.000000
vn -0.000000 1.000000 0.000000
vn -0.000000 1.000000 0.000000
vn 0.000000 1.000000 0.000000
vn 0.000000 1.000000 0.000000
vn 0.000000 1.000000 0.000000
vn 0.000000 1.000000 0.000000
vn -0.000000 1.000000 0.000000
vn -0.000000 1.000000 0.000000
vn -0.000000 1.000000 0.000000
vn -0.000000 1.000000 0.000000
vn -0.000000 1.000000 0.000000
vn -0.000000 1.000000 0.000000
vn 0.000000 1.000000 -0.000000
vn 0.000000 1.000000 -0.000000
vn 0.000000 1.000000 0.000000
vn 0.000000 1.000000 0.000000
vn 0.000000 1.000000 0.000000
vn 0.000000 1.000000 0.000000
vn -0.000000 1.000000 0.000000
vn -0.000000 1.000000 0.000000
vn -0.000000 1.000000 0.000000
vn -0.000000 1.000000 0.000000
vn 0.000000 1.000000 0.000000
vn 0.000000 1.000000 0.000000
vn 0.000000 1.000000 0.000000
vn 0.000000 1.000000 0.000000
vn 0.000000 1.000000 -0.000000
vn 0.000000 1.000000 -0.000000
vn 0.000000 1.000000 -0.000000
vn 0.000000 1.000000 -0.000000
vn -0.000000 1.000000 -0.000000
vn -0.000000 1.000000 -0.000000
vn -0.000000 1.000000 -0.000000
vn -0.000000 1.000000 -0.000000
vn 0.000000 1.000000 0.000000
vn 0.000000 1.000000 0.000000
vn 0.000000 1.000000 0.000000
vn 0.000000 1.000000 0.000000
vn 0.000000 1.000000 0.000000
vn 0.000000 1.000000 0.000000
vn 0.000000 1.000000 0.000000
vn 0.000000 1.000000 0.000000
vn 0.000000 1.000000 -0.000000
vn 0.000000 1.000000 -0.000000
vn 0.000000 1.000000 -0.000000
vn 0.000000 1.000000 -0.000000
vn 0.000000 1.000000 0.000000
vn 0.000000 1.000000 0.000000
vn 0.000000 1.000000 0.000000
vn 0.000000 1.000000 0.000000
vn 0.000000 1.000000 0.000000
vn 0.000000 1.000000 0.000000
vn 0.000000 1.000000 0.000000
vn 0.000000 1.000000 0.000000
vn -0.000000 1.000000 -0.000000
vn -0.000000 1.000000 -0.000000
vn -0.000000 1.000000 -0.000000
vn -0.000000 1.000000 -0.000000
vn -0.000000 1.000000 0.000000
vn -0.000000 1.000000 0.000000
vn -0.000000 1.000000 0.000000
vn -0.000000 1.000000 0.000000
vn 0.000000 1.000000 0.000000
vn 0.000000 1.000000 0.000000
vn 0.000000 1.000000 0.000000
vn 0.000000 1.000000 0.000000
vn 0.000000 1.000000 0.000000
vn 0.000000 1.000000 0.000000
vn 0.000000 1.000000 0.000000
vn 0.000000 1.000000 0.000000
vn -0.000000 1.000000 0.000000
vn -0.000000 1.000000 0.000000
vn -0.000000 1.000000 0.000000
vn -0.000000 1.000000 0.000000
vn -0.000000 1.000000 -0.000000
vn -0.000000 1.000000 -0.000000
vn -0.000000 1.000000 -0.000000
vn -0.000000 1.000000 -0.000000
vn -0.000000 1.000000 -0.000000
vn -0.000000 1.000000 -0.000000
vn -0.000000 1.000000 -0.000000
vn -0.000000 1.000000 -0.000000
vn -0.000000 1.000000 0.000000
vn -0.000000 1.000000 0.000000
vn -0.000000 1.000000 0.000000
vn -0.000000 1.000000 0.000000
vn 0.000000 1.000000 0.000000
vn 0.000000 1.000000 0.000000
vn 0.000000 1.000000 0.000000
vn 0.000000 1.000000 0.000000
vn 0.000000 1.000000 -0.000000
vn 0.000000 1.000000 -0.000000
vn 0.000000 1.000000 -0.000000
vn 0.000000 1.000000 -0.000000
vn 0.000000 1.000000 0.000000
vn 0.000000 1.000000 0.000000
vn 0.000000 1.000000 0.000000
vn 0.000000 1.000000 0.000000
vn -0.000000 1.000000 -0.000000
vn -0.000000 1.000000 -0.000000
vn -0.000000 1.000000 -0.000000
vn -0.000000 1.000000 -0.000000
vn 0.000000 1.000000 -0.000000
vn 0.000000 1.000000 -0.000000
vn 0.000000 1.000000 -0.000000
vn 0.000000 1.000000 -0.000000
vn 0.000000 1.000000 -0.000000
vn 0.000000 1.000000 -0.000000
vn 0.000000 1.000000 0.000000
vn 0.000000 1.000000 0.000000
vn 0.000000 1.000000 0.000000
vn 0.000000 1.000000 0.000000
vn 0.000000 1.000000 0.000000
vn 0.000000 1.000000 0.000000
vn 0.000000 1.000000 0.000000
vn 0.000000 1.000000 0.000000
vn 0.000000 1.000000 -0.000000
vn 0.000000 1.000000 -0.000000
vn 0.000000 1.000000 -0.000000
vn 0.000000 1.000000 -0.000000
vn 0.000000 1.000000 0.000000
vn 0.000000 1.000000 0.000000
vn 0.000000 1.000000 0.000000
vn 0.000000 1.000000 0.000000
vn -0.000000 1.000000 -0.000000
vn -0.000000 1.000000 -0.000000
vn -0.000000 1.000000 -0.000000
vn -0.000000 1.000000 -0.000000
vn -0.000000 1.000000 0.000000
vn -0.000000 1.000000 0.000000
vn -0.000000 1.000000 0.000000
vn -0.000000 1.000000 0.000000
vn -0.000000 1.000000 0.000000
vn 0.000000 1.000000 0.000000
vn 0.000000 1.000000 0.000000
vn 0.000000 1.000000 0.000000
vn 0.000000 1.000000 0.000000
vn 0.000000 1.000000 0.000000
vn 0.000000 1.000000 0.000000
vn 0.000000 1.000000 0.000000
vn 0.000000 1.000000 0.000000
vn -0.000000 1.000000 0.000000
vn -0.000000 1.000000 0.000000
vn -0.000000 1.000000 0.000000
vn -0.000000 1.000000 0.000000
vn -0.000000 1.000000 0.000000
vn -0.000000 1.000000 0.000000
vn -0.000000 1.000000 0.000000
vn -0.000000 1.000000 0.000000
vn -0.000000 1.000000 0.000000
vn -0.000000 1.000000 0.000000
vn -0.000000 1.000000 0.000000
vn -0.000000 1.000000 0.000000
vn -0.000000 1.000000 -0.000000
vn -0.000000 1.000000 -0.000000
vn -0.000000 1.000000 -0.000000
vn -0.000000 1.000000 -0.000000
vn 0.000000 1.000000 -0.000000
vn 0.000000 1.000000 -0.000000
vn 0.000000 1.000000 -0.000000
vn 0.000000 1.000000 -0.000000
vn -0.000000 1.000000 0.000000
vn -0.000000 1.000000 0.000000
vn -0.000000 1.000000 0.000000
vn -0.000000 1.000000 0.000000
vn -0.000000 1.000000 0.000000
vn -0.000000 1.000000 0.000000
vn -0.000000 1.000000 0.000000
vn -0.000000 1.000000 0.000000
vn 0.000000 1.000000 0.000000
vn 0.000000 1.000000 0.000000
vn 0.000000 1.000000 0.000000
vn 0.000000 1.000000 0.000000
vn 0.000000 1.000000 0.000000
vn 0.000000 1.000000 0.000000
vn 0.000000 1.000000 0.000000
vn 0.000000 1.000000 0.000000
vn -0.000000 1.000000 0.000000
vn -0.000000 1.000000 0.000000
vn -0.000000 1.000000 0.000000
vn -0.000000 1.000000 0.000000
vn 0.000000 1.000000 0.000000
vn 0.000000 1.000000 0.000000
vn -0.000000 1.000000 0.000000
vn -0.000000 1.000000 0.000000
vn -0.000000 1.000000 0.000000
vn -0.000000 1.000000 0.000000
vn 0.000000 1.000000 0.000000
vn 0.000000 1.000000 0.000000
vn 0.000000 1.000000 0.000000
vn 0.000000 1.000000 0.000000
vn 0.000000 1.000000 0.000000
vn 0.000000 1.000000 0.000000
vn 0.000000 1.000000 0.000000
vn 0.000000 1.000000 0.000000
vn -0.000000 1.000000 0.000000
vn -0.000000 1.000000 0.000000
vn -0.000000 1.000000 0.000000
vn -0.000000 1.000000 0.000000
vn -0.000000 1.000000 0.000000
vn -0.000000 1.000000 0.000000
vn -0.000000 1.000000 0.000000
vn -0.000000 1.000000 0.000000
g GroundWithChargingStations
f 1/1/1 2/2/2 4/3/3 3/4/4
f 2/2/5 5/5/6 6/6/7 4/3/8
f 5/5/9 7/7/10 8/8/11 6/6/12
f 10/9/13 8/8/14 7/7/15 9/10/16
f 9/10/17 7/7/18 11/11/19 12/12/20
f 14/13/21 13/14/22 12/12/23 11/11/24
f 14/13/25 15/15/26 16/16/27 13/14/28
f 16/16/29 15/15/30 17/17/31 18/18/32
f 20/19/33 19/20/34 10/9/35 9/10/36
f 22/21/37 21/22/38 19/20/39 20/19/40
f 24/23/41 21/22/42 22/21/43 23/24/44
f 18/18/45 25/25/46 24/23/47 23/24/48
f 17/17/49 26/26/50 25/25/51 18/18/52
f 28/27/53 26/26/54 17/17/55 27/28/56
f 30/29/57 31/30/58 32/31/59 29/32/60
f 33/33/61 34/34/62 28/27/63 27/28/64
f 32/31/59 31/30/58 34/34/62 33/33/61
f 36/35/65 33/33/66 27/28/67 35/36/68
f 36/35/69 35/36/70 37/37/71 38/38/72
f 40/39/73 39/40/74 38/38/75 37/37/76
f 39/40/77 40/39/78 41/41/79 42/42/80
f 42/42/81 41/41/82 43/43/83 44/44/84
f 44/44/85 43/43/86 45/45/87 46/46/88
f 48/47/89 47/48/90 46/46/91 45/45/92
f 47/48/93 48/47/94 49/49/95 50/50/96
f 50/50/97 49/49/98 51/51/99 52/52/100
f 52/52/101 51/51/102 53/53/103 54/54/104
f 54/54/105 53/53/106 5/5/107 2/2/108
f 30/29/109 29/32/110 55/55/111 56/56/112
f 58/57/113 57/58/114 55/55/115 29/32/116
f 60/59/117 59/60/118 57/58/119 58/57/120
f 62/61/121 59/60/122 60/59/123 61/62/124
f 64/63/125 63/64/126 56/56/127 55/55/128
f 63/64/129 64/63/130 65/65/131 66/66/132
f 66/66/133 65/65/134 67/67/135 68/68/136
f 68/68/137 67/67/138 69/69/139 70/70/140
f 72/71/141 70/70/142 69/69/143 71/72/144
f 74/73/145 73/74/146 71/72/147 69/69/148
f 76/75/149 79/76/150 80/77/151 75/78/152
f 78/79/153 76/75/154 75/78/155 77/80/156
f 80/77/151 79/76/150 72/71/157 71/72/158
f 82/81/159 81/82/160 75/78/161 80/77/162
f 84/83/163 83/84/164 81/82/165 82/81/166
f 84/83/167 62/61/168 85/85/169 83/84/170
f 85/85/171 62/61/172 61/62/173 86/86/174
f 86/86/175 87/87/176 88/88/177 85/85/178
f 88/88/179 87/87/180 89/89/181 91/90/182 90/91/183
f 90/91/184 91/90/185 92/92/186 93/93/187
f 91/90/188 89/89/189 94/94/190 95/95/191
f 93/93/192 92/92/193 96/96/194 97/97/195
f 95/95/196 98/98/197 96/96/198 92/92/199
f 95/95/200 94/94/201 99/99/202 98/98/203
f 78/79/204 77/80/205 100/100/206 101/101/207
f 100/100/208 102/102/209 103/103/210 101/101/211
f 97/97/212 103/103/213 102/102/214 93/93/215
f 86/86/216 61/62/217 104/104/218 105/105/219
f 107/106/220 1/1/221 3/4/222 106/107/223
f 105/105/224 104/104/225 110/108/226 111/109/227
f 109/110/228 108/111/229 1/1/230 107/106/231
f 111/109/227 110/108/226 108/111/232 109/110/233
f 107/106/234 106/107/235 112/112/236 113/113/237
f 117/114/238 114/115/239 115/116/240 116/117/241
f 119/118/242 118/119/243 116/117/244 115/116/245
f 119/118/246 113/113/247 112/112/248 118/119/249
f 117/114/250 99/99/251 94/94/252 114/115/253
